<svg viewBox="0 0 2000 1000" xmlns="http://www.w3.org/2000/svg"><defs><filter id="b" x="-200%" y="-200%" width="500%" height="500%"><feGaussianBlur in="SourceGraphic" stdDeviation="20"/></filter></defs><path fill="#010217" d="M0 0h2000v1000H0z"/><ellipse cx="123.774" cy="74.479" rx="1.609" ry="1.395" fill="#fff" opacity=".502"/><ellipse cx="380.063" cy="32.822" rx="1.877" ry="1.527" fill="#fff" opacity=".594"/><ellipse cx="414.525" cy="38.007" rx="1.721" ry="1.463" fill="#fff" opacity=".318"/><ellipse cx="742.61" cy="2.787" rx="1.261" ry="1.182" fill="#fff" opacity=".117"/><ellipse cx="914.265" cy="22.08" rx="1.551" ry="1.219" fill="#fff" opacity=".394"/><ellipse cx="1191.923" cy="61.344" rx="1.428" ry="1.397" fill="#fff" opacity=".142"/><ellipse cx="1344.205" cy="28.448" rx="1.962" ry="1.554" fill="#fff" opacity="-.148"/><ellipse cx="1496.601" cy="22.789" rx="1.727" ry="1.297" fill="#fff" opacity=".689"/><ellipse cx="1673.519" cy="69.976" rx="1.566" ry="1.216" fill="#fff" opacity=".956"/><ellipse cx="1858.738" cy="87.155" rx="1.644" ry="1.201" fill="#fff" opacity=".609"/><ellipse cx="61.244" cy="164.431" rx="1.952" ry="1.647" fill="#fff" opacity=".216"/><ellipse cx="203.625" cy="190.246" rx="1.708" ry="1.231" fill="#fff" opacity=".855"/><ellipse cx="422.229" cy="187.675" rx="1.954" ry="1.499" fill="#fff" opacity="-.158"/><ellipse cx="658.681" cy="134.864" rx="1.911" ry="1.479" fill="#fff" opacity=".145"/><ellipse cx="919.201" cy="182.811" rx="1.485" ry="1.048" fill="#fff" opacity="-.071"/><ellipse cx="1093.724" cy="108.137" rx="2.084" ry="1.621" fill="#fff" opacity=".722"/><ellipse cx="1278.468" cy="114.881" rx="2.023" ry="1.577" fill="#fff" opacity=".773"/><ellipse cx="1500.377" cy="115.496" rx="1.568" ry="1.069" fill="#fff" opacity=".923"/><ellipse cx="1764.345" cy="177.556" rx="1.49" ry="1.207" fill="#fff" opacity=".031"/><ellipse cx="1877.806" cy="181.431" rx="1.135" ry="1.007" fill="#fff" opacity=".697"/><ellipse cx="120.087" cy="248.688" rx="1.173" ry="1.106" fill="#fff" opacity="-.035"/><ellipse cx="318.792" cy="289.603" rx="2.216" ry="1.85" fill="#fff" opacity=".338"/><ellipse cx="469.315" cy="222.093" rx="1.791" ry="1.504" fill="#fff" opacity=".586"/><ellipse cx="690.996" cy="268.848" rx="1.65" ry="1.433" fill="#fff" opacity=".495"/><ellipse cx="901.648" cy="251.961" rx="2.361" ry="1.918" fill="#fff" opacity=".594"/><ellipse cx="1158.715" cy="218.276" rx="2.032" ry="1.941" fill="#fff" opacity=".046"/><ellipse cx="1248.69" cy="218.21" rx="1.637" ry="1.191" fill="#fff" opacity=".618"/><ellipse cx="1461.672" cy="271.63" rx="1.359" ry="1.049" fill="#fff" opacity=".42"/><ellipse cx="1605.341" cy="212.284" rx="2.162" ry="1.863" fill="#fff" opacity="-.221"/><ellipse cx="1951.983" cy="239.002" rx="1.706" ry="1.548" fill="#fff" opacity=".009"/><ellipse cx="187.541" cy="373.063" rx="2.202" ry="1.82" fill="#fff" opacity=".152"/><ellipse cx="287.251" cy="328.856" rx="1.283" ry="1.154" fill="#fff" opacity=".174"/><ellipse cx="433.128" cy="355.192" rx="1.265" ry="1.163" fill="#fff" opacity="-.137"/><ellipse cx="667.431" cy="311.378" rx="1.976" ry="1.572" fill="#fff" opacity=".698"/><ellipse cx="946.039" cy="390.835" rx="1.339" ry="1.18" fill="#fff" opacity=".193"/><ellipse cx="1041.179" cy="377.769" rx="2.01" ry="1.932" fill="#fff" opacity=".736"/><ellipse cx="1349.914" cy="379.75" rx="1.393" ry="1.016" fill="#fff" opacity=".479"/><ellipse cx="1408.149" cy="375.645" rx="1.963" ry="1.805" fill="#fff" opacity=".748"/><ellipse cx="1661.617" cy="316.736" rx="1.876" ry="1.721" fill="#fff" opacity=".721"/><ellipse cx="1810.401" cy="304.697" rx="1.919" ry="1.874" fill="#fff" opacity=".359"/><ellipse cx="174.04" cy="426.985" rx="1.967" ry="1.911" fill="#fff" opacity=".571"/><ellipse cx="395.491" cy="401.213" rx="1.224" ry="1.051" fill="#fff" opacity=".122"/><ellipse cx="520.968" cy="479.723" rx="1.923" ry="1.656" fill="#fff" opacity=".558"/><ellipse cx="749.3" cy="437.131" rx="2.16" ry="1.876" fill="#fff" opacity=".234"/><ellipse cx="996.442" cy="460.413" rx="1.599" ry="1.296" fill="#fff" opacity="-.092"/><ellipse cx="1062.363" cy="483.524" rx="1.983" ry="1.737" fill="#fff" opacity=".008"/><ellipse cx="1344.864" cy="453.095" rx="1.803" ry="1.716" fill="#fff" opacity=".589"/><ellipse cx="1537.326" cy="421.201" rx="1.679" ry="1.291" fill="#fff" opacity="-.236"/><ellipse cx="1687.095" cy="417.657" rx="1.781" ry="1.544" fill="#fff" opacity=".801"/><ellipse cx="1946.024" cy="494.037" rx="1.369" ry="1.099" fill="#fff" opacity=".833"/><ellipse cx="121.376" cy="516.065" rx="1.934" ry="1.454" fill="#fff" opacity=".528"/><ellipse cx="324.411" cy="517.162" rx="1.789" ry="1.723" fill="#fff" opacity=".444"/><ellipse cx="455.821" cy="528.947" rx="1.62" ry="1.458" fill="#fff" opacity=".129"/><ellipse cx="683.917" cy="519.164" rx="1.468" ry="1.287" fill="#fff" opacity=".808"/><ellipse cx="936.281" cy="575.493" rx="1.705" ry="1.536" fill="#fff" opacity=".406"/><ellipse cx="1016.045" cy="516.166" rx="2.095" ry="1.823" fill="#fff" opacity=".239"/><ellipse cx="1268.704" cy="500.243" rx="1.352" ry="1.004" fill="#fff" opacity=".749"/><ellipse cx="1448.319" cy="519.559" rx="1.895" ry="1.712" fill="#fff" opacity=".552"/><ellipse cx="1608.633" cy="533.329" rx="1.568" ry="1.08" fill="#fff" opacity=".2"/><ellipse cx="1880.405" cy="502.363" rx="1.542" ry="1.541" fill="#fff" opacity=".022"/><ellipse cx="2.788" cy="675.81" rx="1.94" ry="1.739" fill="#fff" opacity=".561"/><ellipse cx="373.535" cy="672.879" rx="1.657" ry="1.241" fill="#fff" opacity=".53"/><ellipse cx="471.903" cy="611.511" rx="2.178" ry="1.682" fill="#fff" opacity="-.17"/><ellipse cx="760.314" cy="601.366" rx="1.727" ry="1.228" fill="#fff" opacity=".285"/><ellipse cx="890.487" cy="672.552" rx="2.157" ry="1.792" fill="#fff" opacity=".428"/><ellipse cx="1154.116" cy="641.904" rx="2.05" ry="1.559" fill="#fff" opacity=".688"/><ellipse cx="1329.952" cy="600.492" rx="1.911" ry="1.818" fill="#fff" opacity=".497"/><ellipse cx="1582.078" cy="620.441" rx="2.012" ry="1.676" fill="#fff" opacity=".538"/><ellipse cx="1721.688" cy="638.003" rx="2.1" ry="1.705" fill="#fff" opacity=".312"/><ellipse cx="1969.489" cy="678.051" rx="1.754" ry="1.401" fill="#fff" opacity="-.194"/><ellipse cx="16.969" cy="702.877" rx="1.565" ry="1.213" fill="#fff" opacity="-.117"/><ellipse cx="258.346" cy="792.914" rx="1.48" ry="1.365" fill="#fff" opacity=".006"/><ellipse cx="418.529" cy="787.09" rx="1.965" ry="1.874" fill="#fff" opacity=".461"/><ellipse cx="685.89" cy="784.147" rx="1.53" ry="1.479" fill="#fff" opacity=".178"/><ellipse cx="930.629" cy="702.074" rx="1.75" ry="1.475" fill="#fff" opacity=".701"/><ellipse cx="1117.835" cy="780.071" rx="2.165" ry="1.77" fill="#fff" opacity=".084"/><ellipse cx="1235.392" cy="784.642" rx="1.275" ry="1.114" fill="#fff" opacity=".965"/><ellipse cx="1438.331" cy="770.178" rx="1.394" ry="1.146" fill="#fff" opacity=".235"/><ellipse cx="1726.304" cy="778.709" rx="1.647" ry="1.568" fill="#fff" opacity=".819"/><ellipse cx="1815.276" cy="704.143" rx="2.247" ry="1.806" fill="#fff" opacity=".112"/><ellipse cx="184.245" cy="888.858" rx="2.145" ry="1.838" fill="#fff" opacity=".332"/><ellipse cx="238.344" cy="869.143" rx="1.783" ry="1.538" fill="#fff" opacity="-.1"/><ellipse cx="516.604" cy="800.204" rx="1.377" ry="1.218" fill="#fff" opacity=".488"/><ellipse cx="663.299" cy="868.51" rx="1.302" ry="1.298" fill="#fff" opacity=".312"/><ellipse cx="827.509" cy="878.089" rx="1.655" ry="1.226" fill="#fff" opacity=".677"/><ellipse cx="1160.133" cy="833.814" rx="1.223" ry="1.003" fill="#fff" opacity=".741"/><ellipse cx="1325.916" cy="857.602" rx="2.01" ry="1.752" fill="#fff" opacity=".84"/><ellipse cx="1500.81" cy="820.997" rx="2.176" ry="1.952" fill="#fff" opacity="-.001"/><ellipse cx="1648.038" cy="807.885" rx="2.005" ry="1.782" fill="#fff" opacity=".366"/><ellipse cx="1871.66" cy="825.897" rx="1.965" ry="1.911" fill="#fff" opacity=".049"/><ellipse cx="131.046" cy="951.676" rx="1.456" ry="1.312" fill="#fff" opacity=".146"/><ellipse cx="370.936" cy="903.437" rx="1.757" ry="1.275" fill="#fff" opacity=".129"/><ellipse cx="498.527" cy="997.303" rx="1.743" ry="1.688" fill="#fff" opacity=".043"/><ellipse cx="714.221" cy="956.539" rx="1.527" ry="1.214" fill="#fff" opacity=".095"/><ellipse cx="851.754" cy="944.021" rx="2.256" ry="1.876" fill="#fff" opacity=".041"/><ellipse cx="1156.554" cy="923.326" rx="1.787" ry="1.677" fill="#fff" opacity=".118"/><ellipse cx="1393.768" cy="967.322" rx="1.102" ry="1.032" fill="#fff" opacity=".696"/><ellipse cx="1574.993" cy="957.305" rx="1.419" ry="1.115" fill="#fff" opacity=".629"/><ellipse cx="1693.925" cy="915.896" rx="1.994" ry="1.985" fill="#fff" opacity=".529"/><ellipse cx="1926.146" cy="944.592" rx="1.494" ry="1.289" fill="#fff" opacity=".676"/><g transform="rotate(-55.935 510.676 -601.888)"><defs><linearGradient id="a" x1="0" y1="1" x2="201.215" y2="1" gradientUnits="userSpaceOnUse"><stop stop-color="#fff"/><stop offset=".3" stop-color="#fff" stop-opacity=".1"/><stop offset=".7" stop-color="#fff" stop-opacity="0"/></linearGradient></defs><rect x="-10.061" y="-12.5" width="80.486" height="25" rx="25" ry="25" fill="url(#a)" filter="url(#b)" opacity=".4"/><rect width="120.729" height="8" rx="8" ry="8" fill="url(#a)"/></g><g transform="rotate(-56.515 809.34 -874.646)" fill="url(#a)"><rect x="-10.154" y="-12.5" width="81.233" height="25" rx="25" ry="25" filter="url(#b)" opacity=".4"/><rect width="121.849" height="8" rx="8" ry="8"/></g><g transform="rotate(-62.762 1389.768 -1268.449)" fill="url(#a)"><rect x="-9.669" y="-12.5" width="77.354" height="25" rx="25" ry="25" filter="url(#b)" opacity=".4"/><rect width="116.031" height="8" rx="8" ry="8"/></g><g transform="rotate(-64.691 1543.458 -1164.214)" fill="url(#a)"><rect x="-10.916" y="-12.5" width="87.331" height="25" rx="25" ry="25" filter="url(#b)" opacity=".4"/><rect width="130.997" height="8" rx="8" ry="8"/></g><g transform="rotate(-59.953 1107.296 31.805)" fill="url(#a)"><rect x="-10.494" y="-12.5" width="83.95" height="25" rx="25" ry="25" filter="url(#b)" opacity=".4"/><rect width="125.925" height="8" rx="8" ry="8"/></g></svg>