<svg viewBox="0 0 2000 1000" xmlns="http://www.w3.org/2000/svg"><defs><filter id="c" x="-200%" y="-200%" width="500%" height="500%"><feGaussianBlur in="SourceGraphic" stdDeviation="20"/></filter><filter id="a" x="-100%" y="-100%" width="300%" height="300%"><feGaussianBlur in="SourceGraphic" stdDeviation="10"/></filter></defs><path fill="#010217" d="M0 0h2000v1000H0z"/><ellipse cx="63.685" cy="52.712" rx="2.915" ry="2.871" fill="#fff" opacity=".235" filter="url(#a)"/><ellipse cx="63.685" cy="52.712" rx="1.698" ry="1.435" fill="#fff" opacity=".235"/><ellipse cx="205.179" cy="48.314" rx="3.346" ry="2.955" fill="#fff" filter="url(#a)"/><ellipse cx="205.179" cy="48.314" rx="1.826" ry="1.478" fill="#fff" opacity=".898"/><ellipse cx="283.545" cy="26.479" rx="3.919" ry="3.858" fill="#fff" filter="url(#a)"/><ellipse cx="283.545" cy="26.479" rx="2.191" ry="1.929" fill="#fff" opacity=".793"/><ellipse cx="468.081" cy="59.66" rx="3.864" ry="3.56" fill="#fff" opacity="-.111" filter="url(#a)"/><ellipse cx="468.081" cy="59.66" rx="1.855" ry="1.78" fill="#fff" opacity="-.111"/><ellipse cx="503.107" cy="15.634" rx="2.324" ry="2.125" fill="#fff" filter="url(#a)"/><ellipse cx="503.107" cy="15.634" rx="1.14" ry="1.062" fill="#fff" opacity=".647"/><ellipse cx="639.52" cy="20" rx="3.318" ry="3.044" fill="#fff" opacity=".344" filter="url(#a)"/><ellipse cx="639.52" cy="20" rx="1.824" ry="1.522" fill="#fff" opacity=".344"/><ellipse cx="717.51" cy="40.68" rx="3.007" ry="2.6" fill="#fff" filter="url(#a)"/><ellipse cx="717.51" cy="40.68" rx="1.438" ry="1.3" fill="#fff" opacity=".866"/><ellipse cx="827.679" cy="64.112" rx="3.614" ry="3.409" fill="#fff" opacity=".136" filter="url(#a)"/><ellipse cx="827.679" cy="64.112" rx="2.187" ry="1.705" fill="#fff" opacity=".136"/><ellipse cx="1058.444" cy="22.874" rx="2.38" ry="2.118" fill="#fff" opacity=".016" filter="url(#a)"/><ellipse cx="1058.444" cy="22.874" rx="1.469" ry="1.059" fill="#fff" opacity=".016"/><ellipse cx="1176.076" cy="10.182" rx="2.994" ry="2.681" fill="#fff" filter="url(#a)"/><ellipse cx="1176.076" cy="10.182" rx="1.795" ry="1.34" fill="#fff" opacity=".513"/><ellipse cx="1278.693" cy="53.948" rx="2.919" ry="2.509" fill="#fff" filter="url(#a)"/><ellipse cx="1278.693" cy="53.948" rx="1.518" ry="1.254" fill="#fff" opacity=".644"/><ellipse cx="1396.421" cy="42.671" rx="2.186" ry="2.117" fill="#fff" opacity=".281" filter="url(#a)"/><ellipse cx="1396.421" cy="42.671" rx="1.28" ry="1.058" fill="#fff" opacity=".281"/><ellipse cx="1457.61" cy="30.916" rx="3.346" ry="2.897" fill="#fff" opacity=".297" filter="url(#a)"/><ellipse cx="1457.61" cy="30.916" rx="1.612" ry="1.449" fill="#fff" opacity=".297"/><ellipse cx="1617.467" cy="42.602" rx="4.01" ry="3.545" fill="#fff" filter="url(#a)"/><ellipse cx="1617.467" cy="42.602" rx="2.025" ry="1.772" fill="#fff" opacity=".957"/><ellipse cx="1654.036" cy="40.761" rx="3.041" ry="2.951" fill="#fff" opacity=".452" filter="url(#a)"/><ellipse cx="1654.036" cy="40.761" rx="1.81" ry="1.475" fill="#fff" opacity=".452"/><ellipse cx="1876.382" cy="42.075" rx="2.959" ry="2.615" fill="#fff" filter="url(#a)"/><ellipse cx="1876.382" cy="42.075" rx="1.659" ry="1.307" fill="#fff" opacity=".569"/><ellipse cx="1903.972" cy="27.291" rx="3.667" ry="3.353" fill="#fff" filter="url(#a)"/><ellipse cx="1903.972" cy="27.291" rx="1.861" ry="1.677" fill="#fff" opacity=".65"/><ellipse cx="40.32" cy="81.715" rx="2.952" ry="2.76" fill="#fff" filter="url(#a)"/><ellipse cx="40.32" cy="81.715" rx="1.868" ry="1.38" fill="#fff" opacity=".639"/><ellipse cx="177.371" cy="111.223" rx="3.42" ry="3.255" fill="#fff" filter="url(#a)"/><ellipse cx="177.371" cy="111.223" rx="1.847" ry="1.628" fill="#fff" opacity=".571"/><ellipse cx="295.968" cy="102.526" rx="3.444" ry="3.262" fill="#fff" filter="url(#a)"/><ellipse cx="295.968" cy="102.526" rx="2.014" ry="1.631" fill="#fff" opacity=".559"/><ellipse cx="399.24" cy="68.564" rx="3.381" ry="2.997" fill="#fff" opacity=".436" filter="url(#a)"/><ellipse cx="399.24" cy="68.564" rx="1.857" ry="1.498" fill="#fff" opacity=".436"/><ellipse cx="580.295" cy="86.811" rx="4" ry="3.902" fill="#fff" opacity=".415" filter="url(#a)"/><ellipse cx="580.295" cy="86.811" rx="2.42" ry="1.951" fill="#fff" opacity=".415"/><ellipse cx="672.336" cy="88.637" rx="3.928" ry="3.728" fill="#fff" filter="url(#a)"/><ellipse cx="672.336" cy="88.637" rx="2.165" ry="1.864" fill="#fff" opacity=".842"/><ellipse cx="751.041" cy="109.831" rx="2.926" ry="2.674" fill="#fff" opacity=".391" filter="url(#a)"/><ellipse cx="751.041" cy="109.831" rx="1.658" ry="1.337" fill="#fff" opacity=".391"/><ellipse cx="827.631" cy="104.085" rx="2.641" ry="2.249" fill="#fff" opacity=".168" filter="url(#a)"/><ellipse cx="827.631" cy="104.085" rx="1.154" ry="1.124" fill="#fff" opacity=".168"/><ellipse cx="954.987" cy="91.582" rx="3.184" ry="2.831" fill="#fff" filter="url(#a)"/><ellipse cx="954.987" cy="91.582" rx="1.87" ry="1.415" fill="#fff" opacity=".747"/><ellipse cx="1102.646" cy="108.724" rx="2.726" ry="2.711" fill="#fff" opacity=".258" filter="url(#a)"/><ellipse cx="1102.646" cy="108.724" rx="1.436" ry="1.356" fill="#fff" opacity=".258"/><ellipse cx="1244.209" cy="127.423" rx="3.888" ry="3.391" fill="#fff" opacity=".466" filter="url(#a)"/><ellipse cx="1244.209" cy="127.423" rx="2.119" ry="1.696" fill="#fff" opacity=".466"/><ellipse cx="1329.881" cy="106.778" rx="3.548" ry="3.531" fill="#fff" opacity="-.113" filter="url(#a)"/><ellipse cx="1329.881" cy="106.778" rx="2.212" ry="1.765" fill="#fff" opacity="-.113"/><ellipse cx="1517.877" cy="85.19" rx="3.717" ry="3.341" fill="#fff" filter="url(#a)"/><ellipse cx="1517.877" cy="85.19" rx="1.937" ry="1.671" fill="#fff" opacity=".585"/><ellipse cx="1563.149" cy="125.356" rx="4.204" ry="3.907" fill="#fff" filter="url(#a)"/><ellipse cx="1563.149" cy="125.356" rx="2.406" ry="1.953" fill="#fff" opacity=".653"/><ellipse cx="1686.762" cy="71.365" rx="4.011" ry="3.539" fill="#fff" opacity=".237" filter="url(#a)"/><ellipse cx="1686.762" cy="71.365" rx="1.803" ry="1.769" fill="#fff" opacity=".237"/><ellipse cx="1872.435" cy="121.38" rx="3.657" ry="3.223" fill="#fff" opacity=".182" filter="url(#a)"/><ellipse cx="1872.435" cy="121.38" rx="1.955" ry="1.612" fill="#fff" opacity=".182"/><ellipse cx="1967.772" cy="103.311" rx="3.918" ry="3.865" fill="#fff" filter="url(#a)"/><ellipse cx="1967.772" cy="103.311" rx="2.2" ry="1.932" fill="#fff" opacity=".688"/><ellipse cx="117.141" cy="152.905" rx="4.104" ry="3.861" fill="#fff" filter="url(#a)"/><ellipse cx="117.141" cy="152.905" rx="2.346" ry="1.93" fill="#fff" opacity=".501"/><ellipse cx="227.289" cy="194.714" rx="3.464" ry="3.357" fill="#fff" opacity=".418" filter="url(#a)"/><ellipse cx="227.289" cy="194.714" rx="2.152" ry="1.678" fill="#fff" opacity=".418"/><ellipse cx="327.549" cy="179.759" rx="3.558" ry="3.406" fill="#fff" filter="url(#a)"/><ellipse cx="327.549" cy="179.759" rx="1.73" ry="1.703" fill="#fff" opacity=".542"/><ellipse cx="445.836" cy="162.54" rx="4.188" ry="3.944" fill="#fff" opacity=".306" filter="url(#a)"/><ellipse cx="445.836" cy="162.54" rx="2.339" ry="1.972" fill="#fff" opacity=".306"/><ellipse cx="519.279" cy="176.388" rx="3.939" ry="3.843" fill="#fff" filter="url(#a)"/><ellipse cx="519.279" cy="176.388" rx="2.036" ry="1.921" fill="#fff" opacity=".836"/><ellipse cx="694.615" cy="143.108" rx="2.789" ry="2.301" fill="#fff" opacity=".202" filter="url(#a)"/><ellipse cx="694.615" cy="143.108" rx="1.237" ry="1.15" fill="#fff" opacity=".202"/><ellipse cx="754.106" cy="152.683" rx="2.222" ry="2.083" fill="#fff" filter="url(#a)"/><ellipse cx="754.106" cy="152.683" rx="1.4" ry="1.042" fill="#fff" opacity=".744"/><ellipse cx="833.507" cy="189.664" rx="2.477" ry="2.404" fill="#fff" opacity=".344" filter="url(#a)"/><ellipse cx="833.507" cy="189.664" rx="1.587" ry="1.202" fill="#fff" opacity=".344"/><ellipse cx="964.861" cy="137.647" rx="2.873" ry="2.526" fill="#fff" opacity="-.01" filter="url(#a)"/><ellipse cx="964.861" cy="137.647" rx="1.277" ry="1.263" fill="#fff" opacity="-.01"/><ellipse cx="1119.009" cy="197.567" rx="2.664" ry="2.466" fill="#fff" filter="url(#a)"/><ellipse cx="1119.009" cy="197.567" rx="1.621" ry="1.233" fill="#fff" opacity=".527"/><ellipse cx="1228.478" cy="135.201" rx="4.141" ry="3.664" fill="#fff" filter="url(#a)"/><ellipse cx="1228.478" cy="135.201" rx="1.846" ry="1.832" fill="#fff" opacity=".519"/><ellipse cx="1351.738" cy="146.467" rx="3.971" ry="3.595" fill="#fff" opacity=".024" filter="url(#a)"/><ellipse cx="1351.738" cy="146.467" rx="1.845" ry="1.798" fill="#fff" opacity=".024"/><ellipse cx="1438.643" cy="146.39" rx="2.841" ry="2.495" fill="#fff" opacity=".3" filter="url(#a)"/><ellipse cx="1438.643" cy="146.39" rx="1.543" ry="1.247" fill="#fff" opacity=".3"/><ellipse cx="1547.522" cy="196.128" rx="3.235" ry="3.053" fill="#fff" opacity=".167" filter="url(#a)"/><ellipse cx="1547.522" cy="196.128" rx="1.594" ry="1.526" fill="#fff" opacity=".167"/><ellipse cx="1680.348" cy="176.276" rx="3.955" ry="3.867" fill="#fff" opacity=".241" filter="url(#a)"/><ellipse cx="1680.348" cy="176.276" rx="2.366" ry="1.933" fill="#fff" opacity=".241"/><ellipse cx="1878.952" cy="200.896" rx="4.233" ry="3.768" fill="#fff" opacity=".326" filter="url(#a)"/><ellipse cx="1878.952" cy="200.896" rx="2.311" ry="1.884" fill="#fff" opacity=".326"/><ellipse cx="1935.103" cy="191.419" rx="4.129" ry="3.747" fill="#fff" opacity=".374" filter="url(#a)"/><ellipse cx="1935.103" cy="191.419" rx="1.952" ry="1.874" fill="#fff" opacity=".374"/><ellipse cx="101.266" cy="262.942" rx="3.743" ry="3.292" fill="#fff" opacity="-.148" filter="url(#a)"/><ellipse cx="101.266" cy="262.942" rx="1.913" ry="1.646" fill="#fff" opacity="-.148"/><ellipse cx="207.051" cy="212.071" rx="3.057" ry="2.969" fill="#fff" opacity=".196" filter="url(#a)"/><ellipse cx="207.051" cy="212.071" rx="1.552" ry="1.484" fill="#fff" opacity=".196"/><ellipse cx="296.845" cy="208.862" rx="2.811" ry="2.384" fill="#fff" filter="url(#a)"/><ellipse cx="296.845" cy="208.862" rx="1.543" ry="1.192" fill="#fff" opacity=".883"/><ellipse cx="416.271" cy="228.799" rx="3.223" ry="2.894" fill="#fff" opacity="-.089" filter="url(#a)"/><ellipse cx="416.271" cy="228.799" rx="1.892" ry="1.447" fill="#fff" opacity="-.089"/><ellipse cx="534.831" cy="237.778" rx="3.308" ry="3.258" fill="#fff" opacity=".125" filter="url(#a)"/><ellipse cx="534.831" cy="237.778" rx="2.033" ry="1.629" fill="#fff" opacity=".125"/><ellipse cx="638.612" cy="220.237" rx="3.025" ry="2.9" fill="#fff" opacity="-.064" filter="url(#a)"/><ellipse cx="638.612" cy="220.237" rx="1.822" ry="1.45" fill="#fff" opacity="-.064"/><ellipse cx="745.701" cy="228.982" rx="3.259" ry="2.869" fill="#fff" opacity=".216" filter="url(#a)"/><ellipse cx="745.701" cy="228.982" rx="1.907" ry="1.434" fill="#fff" opacity=".216"/><ellipse cx="914.645" cy="266.227" rx="3.328" ry="3.021" fill="#fff" opacity=".188" filter="url(#a)"/><ellipse cx="914.645" cy="266.227" rx="1.892" ry="1.511" fill="#fff" opacity=".188"/><ellipse cx="976.626" cy="247.939" rx="3.473" ry="3.365" fill="#fff" filter="url(#a)"/><ellipse cx="976.626" cy="247.939" rx="1.789" ry="1.682" fill="#fff" opacity=".555"/><ellipse cx="1127.531" cy="230.453" rx="4.167" ry="3.728" fill="#fff" filter="url(#a)"/><ellipse cx="1127.531" cy="230.453" rx="2.346" ry="1.864" fill="#fff" opacity=".689"/><ellipse cx="1292.039" cy="255.663" rx="3.424" ry="3.234" fill="#fff" opacity="-.167" filter="url(#a)"/><ellipse cx="1292.039" cy="255.663" rx="1.719" ry="1.617" fill="#fff" opacity="-.167"/><ellipse cx="1330.048" cy="257.678" rx="2.899" ry="2.523" fill="#fff" filter="url(#a)"/><ellipse cx="1330.048" cy="257.678" rx="1.414" ry="1.261" fill="#fff" opacity=".595"/><ellipse cx="1484.1" cy="214.149" rx="2.775" ry="2.601" fill="#fff" filter="url(#a)"/><ellipse cx="1484.1" cy="214.149" rx="1.566" ry="1.301" fill="#fff" opacity=".798"/><ellipse cx="1547.319" cy="217.527" rx="3.651" ry="3.481" fill="#fff" filter="url(#a)"/><ellipse cx="1547.319" cy="217.527" rx="2.194" ry="1.74" fill="#fff" opacity=".541"/><ellipse cx="1755.004" cy="213.347" rx="2.986" ry="2.845" fill="#fff" opacity=".42" filter="url(#a)"/><ellipse cx="1755.004" cy="213.347" rx="1.75" ry="1.422" fill="#fff" opacity=".42"/><ellipse cx="1867.481" cy="216.091" rx="2.533" ry="2.209" fill="#fff" filter="url(#a)"/><ellipse cx="1867.481" cy="216.091" rx="1.204" ry="1.104" fill="#fff" opacity=".888"/><ellipse cx="2005.746" cy="247.942" rx="2.417" ry="2.364" fill="#fff" filter="url(#a)"/><ellipse cx="2005.746" cy="247.942" rx="1.585" ry="1.182" fill="#fff" opacity=".717"/><ellipse cx="42.831" cy="304.549" rx="3.581" ry="3.298" fill="#fff" opacity="-.216" filter="url(#a)"/><ellipse cx="42.831" cy="304.549" rx="2.007" ry="1.649" fill="#fff" opacity="-.216"/><ellipse cx="194.631" cy="321.81" rx="2.301" ry="2.182" fill="#fff" opacity=".373" filter="url(#a)"/><ellipse cx="194.631" cy="321.81" rx="1.291" ry="1.091" fill="#fff" opacity=".373"/><ellipse cx="282.388" cy="278.898" rx="2.446" ry="2.308" fill="#fff" filter="url(#a)"/><ellipse cx="282.388" cy="278.898" rx="1.562" ry="1.154" fill="#fff" opacity=".504"/><ellipse cx="387.087" cy="303.624" rx="3.896" ry="3.73" fill="#fff" opacity=".138" filter="url(#a)"/><ellipse cx="387.087" cy="303.624" rx="1.871" ry="1.865" fill="#fff" opacity=".138"/><ellipse cx="506.653" cy="323.501" rx="2.918" ry="2.639" fill="#fff" opacity=".333" filter="url(#a)"/><ellipse cx="506.653" cy="323.501" rx="1.772" ry="1.32" fill="#fff" opacity=".333"/><ellipse cx="660.597" cy="301.213" rx="3.18" ry="2.866" fill="#fff" opacity=".049" filter="url(#a)"/><ellipse cx="660.597" cy="301.213" rx="1.581" ry="1.433" fill="#fff" opacity=".049"/><ellipse cx="816.73" cy="324.424" rx="2.998" ry="2.665" fill="#fff" opacity="-.069" filter="url(#a)"/><ellipse cx="816.73" cy="324.424" rx="1.607" ry="1.332" fill="#fff" opacity="-.069"/><ellipse cx="898.896" cy="312.375" rx="3.078" ry="2.596" fill="#fff" opacity=".491" filter="url(#a)"/><ellipse cx="898.896" cy="312.375" rx="1.578" ry="1.298" fill="#fff" opacity=".491"/><ellipse cx="975.959" cy="284.655" rx="3.712" ry="3.629" fill="#fff" opacity=".171" filter="url(#a)"/><ellipse cx="975.959" cy="284.655" rx="1.988" ry="1.815" fill="#fff" opacity=".171"/><ellipse cx="1133.346" cy="326.209" rx="2.672" ry="2.215" fill="#fff" opacity=".426" filter="url(#a)"/><ellipse cx="1133.346" cy="326.209" rx="1.381" ry="1.107" fill="#fff" opacity=".426"/><ellipse cx="1284.492" cy="332.235" rx="4.016" ry="3.578" fill="#fff" opacity=".233" filter="url(#a)"/><ellipse cx="1284.492" cy="332.235" rx="1.902" ry="1.789" fill="#fff" opacity=".233"/><ellipse cx="1407.455" cy="315.565" rx="4.231" ry="3.891" fill="#fff" opacity=".024" filter="url(#a)"/><ellipse cx="1407.455" cy="315.565" rx="2.188" ry="1.946" fill="#fff" opacity=".024"/><ellipse cx="1436.511" cy="297.299" rx="3.452" ry="3.189" fill="#fff" filter="url(#a)"/><ellipse cx="1436.511" cy="297.299" rx="1.672" ry="1.595" fill="#fff" opacity=".648"/><ellipse cx="1621.167" cy="326.406" rx="3.081" ry="2.868" fill="#fff" opacity=".113" filter="url(#a)"/><ellipse cx="1621.167" cy="326.406" rx="1.64" ry="1.434" fill="#fff" opacity=".113"/><ellipse cx="1724.241" cy="309.723" rx="3.874" ry="3.461" fill="#fff" filter="url(#a)"/><ellipse cx="1724.241" cy="309.723" rx="2.002" ry="1.73" fill="#fff" opacity=".672"/><ellipse cx="1851.407" cy="306.38" rx="3.936" ry="3.865" fill="#fff" opacity=".144" filter="url(#a)"/><ellipse cx="1851.407" cy="306.38" rx="2.131" ry="1.932" fill="#fff" opacity=".144"/><ellipse cx="1958.361" cy="276.14" rx="2.817" ry="2.425" fill="#fff" filter="url(#a)"/><ellipse cx="1958.361" cy="276.14" rx="1.244" ry="1.213" fill="#fff" opacity=".664"/><ellipse cx="90.978" cy="343.94" rx="2.415" ry="2.28" fill="#fff" opacity="-.227" filter="url(#a)"/><ellipse cx="90.978" cy="343.94" rx="1.141" ry="1.14" fill="#fff" opacity="-.227"/><ellipse cx="134.728" cy="359.351" rx="2.705" ry="2.407" fill="#fff" opacity="-.037" filter="url(#a)"/><ellipse cx="134.728" cy="359.351" rx="1.633" ry="1.203" fill="#fff" opacity="-.037"/><ellipse cx="286.125" cy="335.194" rx="2.901" ry="2.871" fill="#fff" opacity=".017" filter="url(#a)"/><ellipse cx="286.125" cy="335.194" rx="1.916" ry="1.435" fill="#fff" opacity=".017"/><ellipse cx="390.075" cy="367.694" rx="3.509" ry="3.197" fill="#fff" filter="url(#a)"/><ellipse cx="390.075" cy="367.694" rx="1.678" ry="1.598" fill="#fff" opacity=".728"/><ellipse cx="549.69" cy="374.388" rx="2.267" ry="2.168" fill="#fff" opacity="-.022" filter="url(#a)"/><ellipse cx="549.69" cy="374.388" rx="1.095" ry="1.084" fill="#fff" opacity="-.022"/><ellipse cx="595.568" cy="339.842" rx="2.861" ry="2.437" fill="#fff" opacity="-.166" filter="url(#a)"/><ellipse cx="595.568" cy="339.842" rx="1.69" ry="1.218" fill="#fff" opacity="-.166"/><ellipse cx="779.525" cy="359.123" rx="3.721" ry="3.446" fill="#fff" opacity=".133" filter="url(#a)"/><ellipse cx="779.525" cy="359.123" rx="2.097" ry="1.723" fill="#fff" opacity=".133"/><ellipse cx="872.331" cy="385.866" rx="2.88" ry="2.723" fill="#fff" filter="url(#a)"/><ellipse cx="872.331" cy="385.866" rx="1.705" ry="1.361" fill="#fff" opacity=".721"/><ellipse cx="958.293" cy="379.61" rx="2.621" ry="2.534" fill="#fff" opacity=".373" filter="url(#a)"/><ellipse cx="958.293" cy="379.61" rx="1.695" ry="1.267" fill="#fff" opacity=".373"/><ellipse cx="1090.979" cy="364.649" rx="3.534" ry="3.382" fill="#fff" opacity="-.012" filter="url(#a)"/><ellipse cx="1090.979" cy="364.649" rx="2.108" ry="1.691" fill="#fff" opacity="-.012"/><ellipse cx="1238.499" cy="376.911" rx="4.166" ry="3.93" fill="#fff" opacity="-.13" filter="url(#a)"/><ellipse cx="1238.499" cy="376.911" rx="2.24" ry="1.965" fill="#fff" opacity="-.13"/><ellipse cx="1362.14" cy="389.107" rx="3.428" ry="3.135" fill="#fff" opacity="-.183" filter="url(#a)"/><ellipse cx="1362.14" cy="389.107" rx="2.063" ry="1.567" fill="#fff" opacity="-.183"/><ellipse cx="1503.068" cy="355.184" rx="3.196" ry="2.81" fill="#fff" filter="url(#a)"/><ellipse cx="1503.068" cy="355.184" rx="1.581" ry="1.405" fill="#fff" opacity=".923"/><ellipse cx="1568.007" cy="388.173" rx="3.822" ry="3.394" fill="#fff" opacity="-.056" filter="url(#a)"/><ellipse cx="1568.007" cy="388.173" rx="1.813" ry="1.697" fill="#fff" opacity="-.056"/><ellipse cx="1734.756" cy="335.648" rx="3.622" ry="3.551" fill="#fff" filter="url(#a)"/><ellipse cx="1734.756" cy="335.648" rx="2.249" ry="1.776" fill="#fff" opacity=".923"/><ellipse cx="1780.291" cy="372.449" rx="3.361" ry="3.002" fill="#fff" opacity=".151" filter="url(#a)"/><ellipse cx="1780.291" cy="372.449" rx="1.577" ry="1.501" fill="#fff" opacity=".151"/><ellipse cx="1936.537" cy="394.706" rx="3.695" ry="3.482" fill="#fff" opacity=".357" filter="url(#a)"/><ellipse cx="1936.537" cy="394.706" rx="2.09" ry="1.741" fill="#fff" opacity=".357"/><ellipse cx="115.819" cy="435.006" rx="3.919" ry="3.476" fill="#fff" opacity=".373" filter="url(#a)"/><ellipse cx="115.819" cy="435.006" rx="1.925" ry="1.738" fill="#fff" opacity=".373"/><ellipse cx="212.862" cy="413.677" rx="3.558" ry="3.35" fill="#fff" opacity=".396" filter="url(#a)"/><ellipse cx="212.862" cy="413.677" rx="1.976" ry="1.675" fill="#fff" opacity=".396"/><ellipse cx="244.315" cy="453.683" rx="3.135" ry="3.093" fill="#fff" opacity=".396" filter="url(#a)"/><ellipse cx="244.315" cy="453.683" rx="1.744" ry="1.546" fill="#fff" opacity=".396"/><ellipse cx="395.956" cy="402.335" rx="3.214" ry="3.061" fill="#fff" opacity=".173" filter="url(#a)"/><ellipse cx="395.956" cy="402.335" rx="1.636" ry="1.531" fill="#fff" opacity=".173"/><ellipse cx="513.941" cy="457.288" rx="3.418" ry="3.05" fill="#fff" opacity="-.049" filter="url(#a)"/><ellipse cx="513.941" cy="457.288" rx="1.804" ry="1.525" fill="#fff" opacity="-.049"/><ellipse cx="693.515" cy="422.889" rx="2.512" ry="2.463" fill="#fff" opacity=".035" filter="url(#a)"/><ellipse cx="693.515" cy="422.889" rx="1.369" ry="1.231" fill="#fff" opacity=".035"/><ellipse cx="776.854" cy="440.596" rx="2.872" ry="2.562" fill="#fff" filter="url(#a)"/><ellipse cx="776.854" cy="440.596" rx="1.385" ry="1.281" fill="#fff" opacity=".792"/><ellipse cx="871.506" cy="414.31" rx="2.121" ry="2.046" fill="#fff" opacity="-.263" filter="url(#a)"/><ellipse cx="871.506" cy="414.31" rx="1.415" ry="1.023" fill="#fff" opacity="-.263"/><ellipse cx="961.736" cy="462.424" rx="3.125" ry="2.708" fill="#fff" opacity="-.033" filter="url(#a)"/><ellipse cx="961.736" cy="462.424" rx="1.447" ry="1.354" fill="#fff" opacity="-.033"/><ellipse cx="1065.75" cy="466.3" rx="4.119" ry="3.731" fill="#fff" filter="url(#a)"/><ellipse cx="1065.75" cy="466.3" rx="2.156" ry="1.866" fill="#fff" opacity=".693"/><ellipse cx="1274.408" cy="464.79" rx="3.241" ry="3.054" fill="#fff" opacity=".473" filter="url(#a)"/><ellipse cx="1274.408" cy="464.79" rx="1.661" ry="1.527" fill="#fff" opacity=".473"/><ellipse cx="1322.107" cy="468.541" rx="3.402" ry="3.144" fill="#fff" opacity=".452" filter="url(#a)"/><ellipse cx="1322.107" cy="468.541" rx="2.039" ry="1.572" fill="#fff" opacity=".452"/><ellipse cx="1526.681" cy="456.465" rx="3.48" ry="3.432" fill="#fff" filter="url(#a)"/><ellipse cx="1526.681" cy="456.465" rx="2.039" ry="1.716" fill="#fff" opacity=".696"/><ellipse cx="1615.335" cy="461.645" rx="2.404" ry="2.234" fill="#fff" opacity=".203" filter="url(#a)"/><ellipse cx="1615.335" cy="461.645" rx="1.376" ry="1.117" fill="#fff" opacity=".203"/><ellipse cx="1665.608" cy="415.982" rx="3.836" ry="3.706" fill="#fff" opacity=".121" filter="url(#a)"/><ellipse cx="1665.608" cy="415.982" rx="2.11" ry="1.853" fill="#fff" opacity=".121"/><ellipse cx="1837.224" cy="467.161" rx="2.824" ry="2.447" fill="#fff" opacity=".273" filter="url(#a)"/><ellipse cx="1837.224" cy="467.161" rx="1.276" ry="1.223" fill="#fff" opacity=".273"/><ellipse cx="1939.277" cy="434.394" rx="2.381" ry="2.056" fill="#fff" filter="url(#a)"/><ellipse cx="1939.277" cy="434.394" rx="1.383" ry="1.028" fill="#fff" opacity=".815"/><ellipse cx="88.988" cy="500.992" rx="3.703" ry="3.431" fill="#fff" filter="url(#a)"/><ellipse cx="88.988" cy="500.992" rx="1.889" ry="1.715" fill="#fff" opacity=".519"/><ellipse cx="230.064" cy="530.107" rx="2.466" ry="2.024" fill="#fff" opacity=".301" filter="url(#a)"/><ellipse cx="230.064" cy="530.107" rx="1.132" ry="1.012" fill="#fff" opacity=".301"/><ellipse cx="236.655" cy="503.845" rx="2.491" ry="2.337" fill="#fff" filter="url(#a)"/><ellipse cx="236.655" cy="503.845" rx="1.25" ry="1.168" fill="#fff" opacity=".565"/><ellipse cx="464.201" cy="509.376" rx="2.423" ry="2.075" fill="#fff" filter="url(#a)"/><ellipse cx="464.201" cy="509.376" rx="1.496" ry="1.037" fill="#fff" opacity=".717"/><ellipse cx="516.641" cy="511.39" rx="3.126" ry="3.11" fill="#fff" opacity=".213" filter="url(#a)"/><ellipse cx="516.641" cy="511.39" rx="1.951" ry="1.555" fill="#fff" opacity=".213"/><ellipse cx="685.621" cy="480.493" rx="2.685" ry="2.624" fill="#fff" filter="url(#a)"/><ellipse cx="685.621" cy="480.493" rx="1.699" ry="1.312" fill="#fff" opacity=".504"/><ellipse cx="732.701" cy="533.384" rx="3.92" ry="3.706" fill="#fff" opacity=".391" filter="url(#a)"/><ellipse cx="732.701" cy="533.384" rx="1.938" ry="1.853" fill="#fff" opacity=".391"/><ellipse cx="914.699" cy="481.662" rx="3.625" ry="3.234" fill="#fff" filter="url(#a)"/><ellipse cx="914.699" cy="481.662" rx="1.77" ry="1.617" fill="#fff" opacity=".883"/><ellipse cx="1007.458" cy="482.606" rx="4.413" ry="3.933" fill="#fff" opacity=".207" filter="url(#a)"/><ellipse cx="1007.458" cy="482.606" rx="2.203" ry="1.967" fill="#fff" opacity=".207"/><ellipse cx="1133.54" cy="481.067" rx="3.928" ry="3.754" fill="#fff" filter="url(#a)"/><ellipse cx="1133.54" cy="481.067" rx="2.165" ry="1.877" fill="#fff" opacity=".547"/><ellipse cx="1280.715" cy="527.521" rx="2.483" ry="2.144" fill="#fff" opacity=".453" filter="url(#a)"/><ellipse cx="1280.715" cy="527.521" rx="1.386" ry="1.072" fill="#fff" opacity=".453"/><ellipse cx="1376.517" cy="494.682" rx="2.697" ry="2.483" fill="#fff" opacity="-.034" filter="url(#a)"/><ellipse cx="1376.517" cy="494.682" rx="1.522" ry="1.241" fill="#fff" opacity="-.034"/><ellipse cx="1440.622" cy="501.591" rx="2.911" ry="2.629" fill="#fff" opacity=".263" filter="url(#a)"/><ellipse cx="1440.622" cy="501.591" rx="1.61" ry="1.315" fill="#fff" opacity=".263"/><ellipse cx="1586.633" cy="497.751" rx="3.725" ry="3.72" fill="#fff" opacity=".061" filter="url(#a)"/><ellipse cx="1586.633" cy="497.751" rx="2.019" ry="1.86" fill="#fff" opacity=".061"/><ellipse cx="1741.248" cy="493.039" rx="3.74" ry="3.27" fill="#fff" opacity=".193" filter="url(#a)"/><ellipse cx="1741.248" cy="493.039" rx="2.056" ry="1.635" fill="#fff" opacity=".193"/><ellipse cx="1813.898" cy="474.512" rx="2.513" ry="2.199" fill="#fff" filter="url(#a)"/><ellipse cx="1813.898" cy="474.512" rx="1.342" ry="1.099" fill="#fff" opacity=".725"/><ellipse cx="1968.872" cy="480.435" rx="3.008" ry="2.876" fill="#fff" filter="url(#a)"/><ellipse cx="1968.872" cy="480.435" rx="1.831" ry="1.438" fill="#fff" opacity=".837"/><ellipse cx="48.56" cy="575.264" rx="3.714" ry="3.361" fill="#fff" filter="url(#a)"/><ellipse cx="48.56" cy="575.264" rx="2.029" ry="1.68" fill="#fff" opacity=".711"/><ellipse cx="134.634" cy="571.183" rx="2.782" ry="2.32" fill="#fff" opacity="-.065" filter="url(#a)"/><ellipse cx="134.634" cy="571.183" rx="1.3" ry="1.16" fill="#fff" opacity="-.065"/><ellipse cx="297.353" cy="592.79" rx="2.128" ry="2.1" fill="#fff" filter="url(#a)"/><ellipse cx="297.353" cy="592.79" rx="1.386" ry="1.05" fill="#fff" opacity=".546"/><ellipse cx="409.832" cy="595.242" rx="3.755" ry="3.502" fill="#fff" opacity=".066" filter="url(#a)"/><ellipse cx="409.832" cy="595.242" rx="2.053" ry="1.751" fill="#fff" opacity=".066"/><ellipse cx="559.116" cy="596.712" rx="3.46" ry="3.052" fill="#fff" opacity=".444" filter="url(#a)"/><ellipse cx="559.116" cy="596.712" rx="1.552" ry="1.526" fill="#fff" opacity=".444"/><ellipse cx="702.101" cy="540.759" rx="2.413" ry="2.297" fill="#fff" filter="url(#a)"/><ellipse cx="702.101" cy="540.759" rx="1.433" ry="1.149" fill="#fff" opacity=".537"/><ellipse cx="763.511" cy="567.994" rx="2.858" ry="2.584" fill="#fff" opacity=".306" filter="url(#a)"/><ellipse cx="763.511" cy="567.994" rx="1.567" ry="1.292" fill="#fff" opacity=".306"/><ellipse cx="919.199" cy="547.135" rx="3.142" ry="2.831" fill="#fff" opacity=".052" filter="url(#a)"/><ellipse cx="919.199" cy="547.135" rx="1.793" ry="1.415" fill="#fff" opacity=".052"/><ellipse cx="1038.656" cy="562.114" rx="3.582" ry="3.469" fill="#fff" opacity="-.037" filter="url(#a)"/><ellipse cx="1038.656" cy="562.114" rx="2.127" ry="1.735" fill="#fff" opacity="-.037"/><ellipse cx="1145.974" cy="554.302" rx="4.232" ry="3.92" fill="#fff" opacity=".228" filter="url(#a)"/><ellipse cx="1145.974" cy="554.302" rx="2.242" ry="1.96" fill="#fff" opacity=".228"/><ellipse cx="1223.903" cy="540.513" rx="2.735" ry="2.471" fill="#fff" filter="url(#a)"/><ellipse cx="1223.903" cy="540.513" rx="1.288" ry="1.236" fill="#fff" opacity=".732"/><ellipse cx="1299.83" cy="569.943" rx="2.405" ry="2.057" fill="#fff" opacity="-.107" filter="url(#a)"/><ellipse cx="1299.83" cy="569.943" rx="1.303" ry="1.028" fill="#fff" opacity="-.107"/><ellipse cx="1505.448" cy="573.929" rx="3.456" ry="3.219" fill="#fff" opacity=".072" filter="url(#a)"/><ellipse cx="1505.448" cy="573.929" rx="1.713" ry="1.609" fill="#fff" opacity=".072"/><ellipse cx="1617.138" cy="591.819" rx="3.019" ry="3.002" fill="#fff" filter="url(#a)"/><ellipse cx="1617.138" cy="591.819" rx="1.789" ry="1.501" fill="#fff" opacity=".635"/><ellipse cx="1691.189" cy="582.993" rx="4.161" ry="3.727" fill="#fff" opacity="-.075" filter="url(#a)"/><ellipse cx="1691.189" cy="582.993" rx="2.055" ry="1.863" fill="#fff" opacity="-.075"/><ellipse cx="1810.487" cy="567.108" rx="2.787" ry="2.352" fill="#fff" opacity=".062" filter="url(#a)"/><ellipse cx="1810.487" cy="567.108" rx="1.575" ry="1.176" fill="#fff" opacity=".062"/><ellipse cx="1950.461" cy="579.373" rx="2.651" ry="2.44" fill="#fff" filter="url(#a)"/><ellipse cx="1950.461" cy="579.373" rx="1.298" ry="1.22" fill="#fff" opacity=".514"/><ellipse cx="99.943" cy="613.464" rx="3.335" ry="3.322" fill="#fff" opacity=".448" filter="url(#a)"/><ellipse cx="99.943" cy="613.464" rx="1.719" ry="1.661" fill="#fff" opacity=".448"/><ellipse cx="157.515" cy="631.599" rx="3.076" ry="2.605" fill="#fff" opacity=".204" filter="url(#a)"/><ellipse cx="157.515" cy="631.599" rx="1.538" ry="1.302" fill="#fff" opacity=".204"/><ellipse cx="339.25" cy="624.224" rx="3.467" ry="3.101" fill="#fff" filter="url(#a)"/><ellipse cx="339.25" cy="624.224" rx="1.733" ry="1.551" fill="#fff" opacity=".684"/><ellipse cx="423.579" cy="646.114" rx="3.094" ry="3.072" fill="#fff" filter="url(#a)"/><ellipse cx="423.579" cy="646.114" rx="1.7" ry="1.536" fill="#fff" opacity=".755"/><ellipse cx="499.204" cy="631.418" rx="3.784" ry="3.305" fill="#fff" filter="url(#a)"/><ellipse cx="499.204" cy="631.418" rx="1.705" ry="1.653" fill="#fff" opacity=".752"/><ellipse cx="686.86" cy="661.675" rx="4.047" ry="3.659" fill="#fff" opacity=".295" filter="url(#a)"/><ellipse cx="686.86" cy="661.675" rx="2.27" ry="1.829" fill="#fff" opacity=".295"/><ellipse cx="794.286" cy="631.648" rx="2.38" ry="2.209" fill="#fff" filter="url(#a)"/><ellipse cx="794.286" cy="631.648" rx="1.447" ry="1.105" fill="#fff" opacity=".539"/><ellipse cx="873.66" cy="614.913" rx="3.97" ry="3.835" fill="#fff" opacity=".203" filter="url(#a)"/><ellipse cx="873.66" cy="614.913" rx="1.93" ry="1.918" fill="#fff" opacity=".203"/><ellipse cx="945.995" cy="626.39" rx="3.765" ry="3.73" fill="#fff" filter="url(#a)"/><ellipse cx="945.995" cy="626.39" rx="1.966" ry="1.865" fill="#fff" opacity=".931"/><ellipse cx="1090.355" cy="656.332" rx="4.074" ry="3.583" fill="#fff" opacity=".45" filter="url(#a)"/><ellipse cx="1090.355" cy="656.332" rx="2.069" ry="1.792" fill="#fff" opacity=".45"/><ellipse cx="1284.569" cy="657.215" rx="3.501" ry="3.074" fill="#fff" opacity="-.08" filter="url(#a)"/><ellipse cx="1284.569" cy="657.215" rx="1.575" ry="1.537" fill="#fff" opacity="-.08"/><ellipse cx="1408.102" cy="621.08" rx="3.215" ry="2.874" fill="#fff" filter="url(#a)"/><ellipse cx="1408.102" cy="621.08" rx="1.813" ry="1.437" fill="#fff" opacity=".66"/><ellipse cx="1503.892" cy="628.384" rx="4" ry="3.812" fill="#fff" filter="url(#a)"/><ellipse cx="1503.892" cy="628.384" rx="2.028" ry="1.906" fill="#fff" opacity=".553"/><ellipse cx="1580.864" cy="613.12" rx="3.518" ry="3.309" fill="#fff" opacity=".123" filter="url(#a)"/><ellipse cx="1580.864" cy="613.12" rx="2.074" ry="1.654" fill="#fff" opacity=".123"/><ellipse cx="1718.906" cy="634.686" rx="2.721" ry="2.329" fill="#fff" opacity=".202" filter="url(#a)"/><ellipse cx="1718.906" cy="634.686" rx="1.408" ry="1.165" fill="#fff" opacity=".202"/><ellipse cx="1853.84" cy="624.713" rx="3.943" ry="3.815" fill="#fff" filter="url(#a)"/><ellipse cx="1853.84" cy="624.713" rx="2.196" ry="1.908" fill="#fff" opacity=".698"/><ellipse cx="1983.862" cy="665.25" rx="2.314" ry="2.247" fill="#fff" opacity=".251" filter="url(#a)"/><ellipse cx="1983.862" cy="665.25" rx="1.396" ry="1.123" fill="#fff" opacity=".251"/><ellipse cx="6.734" cy="694.681" rx="2.752" ry="2.31" fill="#fff" opacity=".176" filter="url(#a)"/><ellipse cx="6.734" cy="694.681" rx="1.443" ry="1.155" fill="#fff" opacity=".176"/><ellipse cx="231.115" cy="714.902" rx="4.085" ry="3.916" fill="#fff" filter="url(#a)"/><ellipse cx="231.115" cy="714.902" rx="2.403" ry="1.958" fill="#fff" opacity=".704"/><ellipse cx="255.849" cy="733.947" rx="3.29" ry="3.093" fill="#fff" opacity=".105" filter="url(#a)"/><ellipse cx="255.849" cy="733.947" rx="2.045" ry="1.547" fill="#fff" opacity=".105"/><ellipse cx="449.466" cy="684.792" rx="2.696" ry="2.291" fill="#fff" opacity="-.062" filter="url(#a)"/><ellipse cx="449.466" cy="684.792" rx="1.206" ry="1.145" fill="#fff" opacity="-.062"/><ellipse cx="477.794" cy="682.33" rx="2.46" ry="2.233" fill="#fff" opacity=".318" filter="url(#a)"/><ellipse cx="477.794" cy="682.33" rx="1.323" ry="1.117" fill="#fff" opacity=".318"/><ellipse cx="698.39" cy="681.509" rx="3.593" ry="3.424" fill="#fff" opacity="-.1" filter="url(#a)"/><ellipse cx="698.39" cy="681.509" rx="2.089" ry="1.712" fill="#fff" opacity="-.1"/><ellipse cx="765.226" cy="728.863" rx="2.522" ry="2.464" fill="#fff" opacity="-.034" filter="url(#a)"/><ellipse cx="765.226" cy="728.863" rx="1.476" ry="1.232" fill="#fff" opacity="-.034"/><ellipse cx="856.807" cy="712.422" rx="3.33" ry="2.987" fill="#fff" filter="url(#a)"/><ellipse cx="856.807" cy="712.422" rx="1.771" ry="1.494" fill="#fff" opacity=".88"/><ellipse cx="1060.976" cy="715.35" rx="2.511" ry="2.296" fill="#fff" filter="url(#a)"/><ellipse cx="1060.976" cy="715.35" rx="1.195" ry="1.148" fill="#fff" opacity=".837"/><ellipse cx="1103.995" cy="707.132" rx="2.685" ry="2.481" fill="#fff" filter="url(#a)"/><ellipse cx="1103.995" cy="707.132" rx="1.568" ry="1.241" fill="#fff" opacity=".552"/><ellipse cx="1252.727" cy="681.391" rx="2.544" ry="2.334" fill="#fff" filter="url(#a)"/><ellipse cx="1252.727" cy="681.391" rx="1.269" ry="1.167" fill="#fff" opacity=".838"/><ellipse cx="1378.654" cy="709.81" rx="2.936" ry="2.686" fill="#fff" opacity=".129" filter="url(#a)"/><ellipse cx="1378.654" cy="709.81" rx="1.383" ry="1.343" fill="#fff" opacity=".129"/><ellipse cx="1484.769" cy="701.704" rx="2.498" ry="2.339" fill="#fff" filter="url(#a)"/><ellipse cx="1484.769" cy="701.704" rx="1.178" ry="1.17" fill="#fff" opacity=".799"/><ellipse cx="1574.519" cy="705.422" rx="3.266" ry="3" fill="#fff" opacity=".464" filter="url(#a)"/><ellipse cx="1574.519" cy="705.422" rx="1.67" ry="1.5" fill="#fff" opacity=".464"/><ellipse cx="1656.712" cy="708.887" rx="2.961" ry="2.659" fill="#fff" opacity=".009" filter="url(#a)"/><ellipse cx="1656.712" cy="708.887" rx="1.817" ry="1.33" fill="#fff" opacity=".009"/><ellipse cx="1829.49" cy="701.847" rx="3.237" ry="2.97" fill="#fff" filter="url(#a)"/><ellipse cx="1829.49" cy="701.847" rx="1.917" ry="1.485" fill="#fff" opacity=".675"/><ellipse cx="1978.201" cy="685.636" rx="3.71" ry="3.296" fill="#fff" filter="url(#a)"/><ellipse cx="1978.201" cy="685.636" rx="2.122" ry="1.648" fill="#fff" opacity=".551"/><ellipse cx="43.529" cy="749.05" rx="2.691" ry="2.305" fill="#fff" opacity="-.092" filter="url(#a)"/><ellipse cx="43.529" cy="749.05" rx="1.635" ry="1.153" fill="#fff" opacity="-.092"/><ellipse cx="224.763" cy="772.354" rx="3.767" ry="3.598" fill="#fff" filter="url(#a)"/><ellipse cx="224.763" cy="772.354" rx="1.852" ry="1.799" fill="#fff" opacity=".691"/><ellipse cx="276.374" cy="765.971" rx="4.186" ry="3.692" fill="#fff" opacity=".244" filter="url(#a)"/><ellipse cx="276.374" cy="765.971" rx="2.053" ry="1.846" fill="#fff" opacity=".244"/><ellipse cx="398.64" cy="767.219" rx="4.196" ry="3.79" fill="#fff" filter="url(#a)"/><ellipse cx="398.64" cy="767.219" rx="2.292" ry="1.895" fill="#fff" opacity=".565"/><ellipse cx="528.301" cy="741.592" rx="3.352" ry="3.351" fill="#fff" filter="url(#a)"/><ellipse cx="528.301" cy="741.592" rx="2.034" ry="1.676" fill="#fff" opacity=".926"/><ellipse cx="694.879" cy="753.709" rx="2.545" ry="2.237" fill="#fff" filter="url(#a)"/><ellipse cx="694.879" cy="753.709" rx="1.266" ry="1.119" fill="#fff" opacity=".859"/><ellipse cx="788.854" cy="764.029" rx="3.99" ry="3.831" fill="#fff" opacity=".407" filter="url(#a)"/><ellipse cx="788.854" cy="764.029" rx="1.95" ry="1.915" fill="#fff" opacity=".407"/><ellipse cx="901.506" cy="778.622" rx="3.549" ry="3.328" fill="#fff" opacity="-.125" filter="url(#a)"/><ellipse cx="901.506" cy="778.622" rx="2.038" ry="1.664" fill="#fff" opacity="-.125"/><ellipse cx="1033.733" cy="779.111" rx="3.999" ry="3.898" fill="#fff" opacity=".495" filter="url(#a)"/><ellipse cx="1033.733" cy="779.111" rx="2.174" ry="1.949" fill="#fff" opacity=".495"/><ellipse cx="1172.118" cy="750.207" rx="2.997" ry="2.799" fill="#fff" opacity=".493" filter="url(#a)"/><ellipse cx="1172.118" cy="750.207" rx="1.67" ry="1.399" fill="#fff" opacity=".493"/><ellipse cx="1187.308" cy="751.821" rx="2.86" ry="2.682" fill="#fff" opacity=".489" filter="url(#a)"/><ellipse cx="1187.308" cy="751.821" rx="1.528" ry="1.341" fill="#fff" opacity=".489"/><ellipse cx="1359.791" cy="755.698" rx="2.438" ry="2.322" fill="#fff" opacity=".211" filter="url(#a)"/><ellipse cx="1359.791" cy="755.698" rx="1.4" ry="1.161" fill="#fff" opacity=".211"/><ellipse cx="1510.394" cy="748.655" rx="2.773" ry="2.589" fill="#fff" opacity=".082" filter="url(#a)"/><ellipse cx="1510.394" cy="748.655" rx="1.584" ry="1.294" fill="#fff" opacity=".082"/><ellipse cx="1546.147" cy="795.037" rx="2.811" ry="2.578" fill="#fff" filter="url(#a)"/><ellipse cx="1546.147" cy="795.037" rx="1.76" ry="1.289" fill="#fff" opacity=".639"/><ellipse cx="1720.569" cy="749.307" rx="3.431" ry="3.426" fill="#fff" opacity=".03" filter="url(#a)"/><ellipse cx="1720.569" cy="749.307" rx="1.877" ry="1.713" fill="#fff" opacity=".03"/><ellipse cx="1842.624" cy="790.866" rx="3.235" ry="3.058" fill="#fff" opacity="-.033" filter="url(#a)"/><ellipse cx="1842.624" cy="790.866" rx="1.812" ry="1.529" fill="#fff" opacity="-.033"/><ellipse cx="1997.381" cy="793.065" rx="2.965" ry="2.896" fill="#fff" filter="url(#a)"/><ellipse cx="1997.381" cy="793.065" rx="1.923" ry="1.448" fill="#fff" opacity=".626"/><ellipse cx="94.407" cy="851.046" rx="3.223" ry="3.103" fill="#fff" filter="url(#a)"/><ellipse cx="94.407" cy="851.046" rx="2.04" ry="1.551" fill="#fff" opacity=".851"/><ellipse cx="223.645" cy="804.237" rx="2.827" ry="2.395" fill="#fff" filter="url(#a)"/><ellipse cx="223.645" cy="804.237" rx="1.235" ry="1.198" fill="#fff" opacity=".773"/><ellipse cx="268.031" cy="837.411" rx="2.702" ry="2.323" fill="#fff" filter="url(#a)"/><ellipse cx="268.031" cy="837.411" rx="1.428" ry="1.161" fill="#fff" opacity=".595"/><ellipse cx="377.689" cy="804.063" rx="2.602" ry="2.435" fill="#fff" filter="url(#a)"/><ellipse cx="377.689" cy="804.063" rx="1.473" ry="1.218" fill="#fff" opacity=".603"/><ellipse cx="538.529" cy="857.156" rx="2.869" ry="2.704" fill="#fff" filter="url(#a)"/><ellipse cx="538.529" cy="857.156" rx="1.552" ry="1.352" fill="#fff" opacity=".893"/><ellipse cx="678.984" cy="825.581" rx="3.058" ry="2.716" fill="#fff" opacity="-.049" filter="url(#a)"/><ellipse cx="678.984" cy="825.581" rx="1.49" ry="1.358" fill="#fff" opacity="-.049"/><ellipse cx="811.705" cy="854.295" rx="3.006" ry="2.57" fill="#fff" opacity=".047" filter="url(#a)"/><ellipse cx="811.705" cy="854.295" rx="1.334" ry="1.285" fill="#fff" opacity=".047"/><ellipse cx="857.397" cy="836.988" rx="3.794" ry="3.575" fill="#fff" opacity=".326" filter="url(#a)"/><ellipse cx="857.397" cy="836.988" rx="2.076" ry="1.787" fill="#fff" opacity=".326"/><ellipse cx="947.169" cy="831.983" rx="3.836" ry="3.786" fill="#fff" filter="url(#a)"/><ellipse cx="947.169" cy="831.983" rx="2.022" ry="1.893" fill="#fff" opacity=".645"/><ellipse cx="1069.505" cy="820.807" rx="3.191" ry="3.086" fill="#fff" opacity=".003" filter="url(#a)"/><ellipse cx="1069.505" cy="820.807" rx="1.552" ry="1.543" fill="#fff" opacity=".003"/><ellipse cx="1238.043" cy="837.754" rx="4.295" ry="3.802" fill="#fff" opacity=".159" filter="url(#a)"/><ellipse cx="1238.043" cy="837.754" rx="2.063" ry="1.901" fill="#fff" opacity=".159"/><ellipse cx="1339.191" cy="818.198" rx="3.813" ry="3.642" fill="#fff" opacity=".485" filter="url(#a)"/><ellipse cx="1339.191" cy="818.198" rx="2.028" ry="1.821" fill="#fff" opacity=".485"/><ellipse cx="1426.375" cy="831.068" rx="2.352" ry="2.045" fill="#fff" filter="url(#a)"/><ellipse cx="1426.375" cy="831.068" rx="1.425" ry="1.023" fill="#fff" opacity=".588"/><ellipse cx="1615.658" cy="866.504" rx="3.979" ry="3.62" fill="#fff" opacity=".232" filter="url(#a)"/><ellipse cx="1615.658" cy="866.504" rx="2.079" ry="1.81" fill="#fff" opacity=".232"/><ellipse cx="1768.013" cy="840.556" rx="3.531" ry="3.411" fill="#fff" filter="url(#a)"/><ellipse cx="1768.013" cy="840.556" rx="1.995" ry="1.705" fill="#fff" opacity=".818"/><ellipse cx="1790.887" cy="856.654" rx="2.442" ry="2.356" fill="#fff" opacity="-.073" filter="url(#a)"/><ellipse cx="1790.887" cy="856.654" rx="1.477" ry="1.178" fill="#fff" opacity="-.073"/><ellipse cx="1939.443" cy="852.996" rx="3.815" ry="3.407" fill="#fff" opacity=".098" filter="url(#a)"/><ellipse cx="1939.443" cy="852.996" rx="1.745" ry="1.704" fill="#fff" opacity=".098"/><ellipse cx="30.755" cy="905.663" rx="3.389" ry="3.215" fill="#fff" filter="url(#a)"/><ellipse cx="30.755" cy="905.663" rx="1.928" ry="1.608" fill="#fff" opacity=".687"/><ellipse cx="190.477" cy="897.328" rx="3.353" ry="3.274" fill="#fff" opacity=".088" filter="url(#a)"/><ellipse cx="190.477" cy="897.328" rx="2.081" ry="1.637" fill="#fff" opacity=".088"/><ellipse cx="279.953" cy="930.237" rx="2.855" ry="2.609" fill="#fff" opacity=".012" filter="url(#a)"/><ellipse cx="279.953" cy="930.237" rx="1.564" ry="1.304" fill="#fff" opacity=".012"/><ellipse cx="405.105" cy="877.146" rx="3.947" ry="3.692" fill="#fff" opacity="-.065" filter="url(#a)"/><ellipse cx="405.105" cy="877.146" rx="2.101" ry="1.846" fill="#fff" opacity="-.065"/><ellipse cx="540.739" cy="932.054" rx="3.767" ry="3.456" fill="#fff" opacity=".023" filter="url(#a)"/><ellipse cx="540.739" cy="932.054" rx="1.79" ry="1.728" fill="#fff" opacity=".023"/><ellipse cx="682.921" cy="915.368" rx="3.71" ry="3.468" fill="#fff" opacity=".4" filter="url(#a)"/><ellipse cx="682.921" cy="915.368" rx="1.777" ry="1.734" fill="#fff" opacity=".4"/><ellipse cx="779.531" cy="920.902" rx="3.507" ry="3.212" fill="#fff" filter="url(#a)"/><ellipse cx="779.531" cy="920.902" rx="1.783" ry="1.606" fill="#fff" opacity=".558"/><ellipse cx="932.41" cy="904.294" rx="3.683" ry="3.279" fill="#fff" filter="url(#a)"/><ellipse cx="932.41" cy="904.294" rx="1.696" ry="1.64" fill="#fff" opacity=".716"/><ellipse cx="1033.652" cy="896.695" rx="3.952" ry="3.469" fill="#fff" opacity=".306" filter="url(#a)"/><ellipse cx="1033.652" cy="896.695" rx="2.124" ry="1.734" fill="#fff" opacity=".306"/><ellipse cx="1116" cy="879.737" rx="4.339" ry="3.881" fill="#fff" opacity=".273" filter="url(#a)"/><ellipse cx="1116" cy="879.737" rx="2.189" ry="1.941" fill="#fff" opacity=".273"/><ellipse cx="1193.409" cy="890.121" rx="3.691" ry="3.639" fill="#fff" opacity=".421" filter="url(#a)"/><ellipse cx="1193.409" cy="890.121" rx="2.1" ry="1.819" fill="#fff" opacity=".421"/><ellipse cx="1373.113" cy="878.429" rx="2.641" ry="2.256" fill="#fff" opacity=".087" filter="url(#a)"/><ellipse cx="1373.113" cy="878.429" rx="1.217" ry="1.128" fill="#fff" opacity=".087"/><ellipse cx="1517.579" cy="881.008" rx="3.476" ry="3.458" fill="#fff" opacity=".179" filter="url(#a)"/><ellipse cx="1517.579" cy="881.008" rx="2.151" ry="1.729" fill="#fff" opacity=".179"/><ellipse cx="1587.203" cy="931.6" rx="4.234" ry="3.797" fill="#fff" opacity=".179" filter="url(#a)"/><ellipse cx="1587.203" cy="931.6" rx="2.309" ry="1.899" fill="#fff" opacity=".179"/><ellipse cx="1726.228" cy="927.495" rx="2.526" ry="2.387" fill="#fff" opacity=".44" filter="url(#a)"/><ellipse cx="1726.228" cy="927.495" rx="1.299" ry="1.194" fill="#fff" opacity=".44"/><ellipse cx="1849.604" cy="925.786" rx="2.523" ry="2.051" fill="#fff" opacity=".178" filter="url(#a)"/><ellipse cx="1849.604" cy="925.786" rx="1.33" ry="1.025" fill="#fff" opacity=".178"/><ellipse cx="1961.815" cy="885.537" rx="2.909" ry="2.903" fill="#fff" opacity=".301" filter="url(#a)"/><ellipse cx="1961.815" cy="885.537" rx="1.461" ry="1.451" fill="#fff" opacity=".301"/><ellipse cx="80.943" cy="951.159" rx="3.709" ry="3.327" fill="#fff" filter="url(#a)"/><ellipse cx="80.943" cy="951.159" rx="1.742" ry="1.663" fill="#fff" opacity=".641"/><ellipse cx="167.709" cy="994.291" rx="3.349" ry="3.28" fill="#fff" opacity=".013" filter="url(#a)"/><ellipse cx="167.709" cy="994.291" rx="1.67" ry="1.64" fill="#fff" opacity=".013"/><ellipse cx="338.37" cy="983.165" rx="3.999" ry="3.946" fill="#fff" filter="url(#a)"/><ellipse cx="338.37" cy="983.165" rx="2.43" ry="1.973" fill="#fff" opacity=".709"/><ellipse cx="393.158" cy="960.319" rx="3.832" ry="3.358" fill="#fff" filter="url(#a)"/><ellipse cx="393.158" cy="960.319" rx="1.811" ry="1.679" fill="#fff" opacity=".558"/><ellipse cx="472.554" cy="945.817" rx="3.856" ry="3.374" fill="#fff" opacity="-.046" filter="url(#a)"/><ellipse cx="472.554" cy="945.817" rx="1.946" ry="1.687" fill="#fff" opacity="-.046"/><ellipse cx="599.07" cy="946.705" rx="3.548" ry="3.323" fill="#fff" filter="url(#a)"/><ellipse cx="599.07" cy="946.705" rx="1.935" ry="1.661" fill="#fff" opacity=".519"/><ellipse cx="736.091" cy="978.096" rx="3.476" ry="3.362" fill="#fff" opacity=".151" filter="url(#a)"/><ellipse cx="736.091" cy="978.096" rx="1.851" ry="1.681" fill="#fff" opacity=".151"/><ellipse cx="909.604" cy="965.357" rx="2.547" ry="2.252" fill="#fff" opacity=".268" filter="url(#a)"/><ellipse cx="909.604" cy="965.357" rx="1.387" ry="1.126" fill="#fff" opacity=".268"/><ellipse cx="1039.652" cy="987.585" rx="3.017" ry="2.89" fill="#fff" opacity=".068" filter="url(#a)"/><ellipse cx="1039.652" cy="987.585" rx="1.771" ry="1.445" fill="#fff" opacity=".068"/><ellipse cx="1106.283" cy="981.417" rx="3.128" ry="2.745" fill="#fff" opacity=".256" filter="url(#a)"/><ellipse cx="1106.283" cy="981.417" rx="1.539" ry="1.372" fill="#fff" opacity=".256"/><ellipse cx="1253.846" cy="976.757" rx="3.225" ry="3.219" fill="#fff" opacity=".441" filter="url(#a)"/><ellipse cx="1253.846" cy="976.757" rx="1.642" ry="1.609" fill="#fff" opacity=".441"/><ellipse cx="1347.528" cy="1000.329" rx="3.327" ry="2.988" fill="#fff" filter="url(#a)"/><ellipse cx="1347.528" cy="1000.329" rx="1.947" ry="1.494" fill="#fff" opacity=".531"/><ellipse cx="1490.398" cy="983.54" rx="2.852" ry="2.661" fill="#fff" opacity=".334" filter="url(#a)"/><ellipse cx="1490.398" cy="983.54" rx="1.821" ry="1.33" fill="#fff" opacity=".334"/><ellipse cx="1591.777" cy="964.958" rx="2.798" ry="2.607" fill="#fff" filter="url(#a)"/><ellipse cx="1591.777" cy="964.958" rx="1.735" ry="1.304" fill="#fff" opacity=".59"/><ellipse cx="1769.405" cy="948.96" rx="3.992" ry="3.836" fill="#fff" opacity=".16" filter="url(#a)"/><ellipse cx="1769.405" cy="948.96" rx="2.114" ry="1.918" fill="#fff" opacity=".16"/><ellipse cx="1865.914" cy="979.837" rx="2.875" ry="2.587" fill="#fff" opacity="-.242" filter="url(#a)"/><ellipse cx="1865.914" cy="979.837" rx="1.627" ry="1.293" fill="#fff" opacity="-.242"/><ellipse cx="1958.001" cy="973.477" rx="2.324" ry="2.077" fill="#fff" filter="url(#a)"/><ellipse cx="1958.001" cy="973.477" rx="1.139" ry="1.039" fill="#fff" opacity=".712"/><g transform="rotate(-61.068 277.65 -253.943)"><defs><linearGradient id="b" x1="0" y1="1" x2="207.111" y2="1" gradientUnits="userSpaceOnUse"><stop stop-color="#fff"/><stop offset=".3" stop-color="#fff" stop-opacity=".1"/><stop offset=".7" stop-color="#fff" stop-opacity="0"/></linearGradient></defs><rect x="-10.356" y="-12.5" width="82.844" height="25" rx="25" ry="25" fill="url(#b)" filter="url(#c)" opacity=".4"/><rect width="124.266" height="8" rx="8" ry="8" fill="url(#b)"/></g><g transform="rotate(-59.645 1181.604 -1262.361)" fill="url(#b)"><rect x="-11.238" y="-12.5" width="89.904" height="25" rx="25" ry="25" filter="url(#c)" opacity=".4"/><rect width="134.856" height="8" rx="8" ry="8"/></g><g transform="rotate(-57.93 693.903 -266.189)" fill="url(#b)"><rect x="-7.961" y="-12.5" width="63.688" height="25" rx="25" ry="25" filter="url(#c)" opacity=".4"/><rect width="95.532" height="8" rx="8" ry="8"/></g><g transform="rotate(-58.305 1360.21 -852.964)" fill="url(#b)"><rect x="-8.271" y="-12.5" width="66.169" height="25" rx="25" ry="25" filter="url(#c)" opacity=".4"/><rect width="99.254" height="8" rx="8" ry="8"/></g><g transform="rotate(-56.72 1838.555 -1314.252)" fill="url(#b)"><rect x="-9.376" y="-12.5" width="75.01" height="25" rx="25" ry="25" filter="url(#c)" opacity=".4"/><rect width="112.515" height="8" rx="8" ry="8"/></g></svg>