<svg viewBox="0 0 2000 1000" xmlns="http://www.w3.org/2000/svg"><defs><filter id="c" x="-200%" y="-200%" width="500%" height="500%"><feGaussianBlur in="SourceGraphic" stdDeviation="20"/></filter><filter id="a" x="-100%" y="-100%" width="300%" height="300%"><feGaussianBlur in="SourceGraphic" stdDeviation="10"/></filter></defs><path fill="#010217" d="M0 0h2000v1000H0z"/><ellipse cx="104.033" cy="33.471" rx="4.783" ry="4.336" fill="#fff" filter="url(#a)"/><ellipse cx="104.033" cy="33.471" rx="2.363" ry="2.168" fill="#fff" opacity=".522"/><ellipse cx="194.665" cy="4.869" rx="5.87" ry="5.693" fill="#fff" filter="url(#a)"/><ellipse cx="194.665" cy="4.869" rx="3.026" ry="2.847" fill="#fff" opacity=".637"/><ellipse cx="253.936" cy="45.546" rx="4.483" ry="4.11" fill="#fff" opacity=".361" filter="url(#a)"/><ellipse cx="253.936" cy="45.546" rx="2.115" ry="2.055" fill="#fff" opacity=".361"/><ellipse cx="388.133" cy="45.833" rx="6.744" ry="6.386" fill="#fff" opacity="-.158" filter="url(#a)"/><ellipse cx="388.133" cy="45.833" rx="3.394" ry="3.193" fill="#fff" opacity="-.158"/><ellipse cx="573.747" cy="48.976" rx="5.993" ry="5.7" fill="#fff" opacity="-.035" filter="url(#a)"/><ellipse cx="573.747" cy="48.976" rx="3.325" ry="2.85" fill="#fff" opacity="-.035"/><ellipse cx="691.233" cy="17.704" rx="5.117" ry="5.039" fill="#fff" filter="url(#a)"/><ellipse cx="691.233" cy="17.704" rx="2.752" ry="2.52" fill="#fff" opacity=".753"/><ellipse cx="787.768" cy="10.641" rx="3.739" ry="3.334" fill="#fff" opacity=".214" filter="url(#a)"/><ellipse cx="787.768" cy="10.641" rx="2.03" ry="1.667" fill="#fff" opacity=".214"/><ellipse cx="891.498" cy="38.507" rx="4.323" ry="4.052" fill="#fff" opacity=".359" filter="url(#a)"/><ellipse cx="891.498" cy="38.507" rx="2.089" ry="2.026" fill="#fff" opacity=".359"/><ellipse cx="967.156" cy="42.039" rx="6.214" ry="6.203" fill="#fff" opacity=".37" filter="url(#a)"/><ellipse cx="967.156" cy="42.039" rx="3.488" ry="3.102" fill="#fff" opacity=".37"/><ellipse cx="1140.441" cy="50.785" rx="4.186" ry="4.121" fill="#fff" opacity=".455" filter="url(#a)"/><ellipse cx="1140.441" cy="50.785" rx="2.069" ry="2.061" fill="#fff" opacity=".455"/><ellipse cx="1248.525" cy="38.423" rx="4.354" ry="4.184" fill="#fff" filter="url(#a)"/><ellipse cx="1248.525" cy="38.423" rx="2.424" ry="2.092" fill="#fff" opacity=".636"/><ellipse cx="1391.349" cy="12.381" rx="4.393" ry="4.122" fill="#fff" opacity=".06" filter="url(#a)"/><ellipse cx="1391.349" cy="12.381" rx="2.394" ry="2.061" fill="#fff" opacity=".06"/><ellipse cx="1485.437" cy="25.797" rx="6.358" ry="6.032" fill="#fff" opacity=".332" filter="url(#a)"/><ellipse cx="1485.437" cy="25.797" rx="3.249" ry="3.016" fill="#fff" opacity=".332"/><ellipse cx="1640.219" cy="48.253" rx="5.379" ry="4.987" fill="#fff" opacity=".173" filter="url(#a)"/><ellipse cx="1640.219" cy="48.253" rx="2.623" ry="2.494" fill="#fff" opacity=".173"/><ellipse cx="1761.598" cy="35.82" rx="6.366" ry="6.098" fill="#fff" opacity=".22" filter="url(#a)"/><ellipse cx="1761.598" cy="35.82" rx="3.169" ry="3.049" fill="#fff" opacity=".22"/><ellipse cx="1818.478" cy="53.372" rx="6.417" ry="6.285" fill="#fff" opacity="-.051" filter="url(#a)"/><ellipse cx="1818.478" cy="53.372" rx="3.566" ry="3.142" fill="#fff" opacity="-.051"/><ellipse cx="1973.727" cy="43.717" rx="4.338" ry="4.131" fill="#fff" opacity=".353" filter="url(#a)"/><ellipse cx="1973.727" cy="43.717" rx="2.369" ry="2.066" fill="#fff" opacity=".353"/><ellipse cx="28.507" cy="109.063" rx="5.414" ry="5.309" fill="#fff" filter="url(#a)"/><ellipse cx="28.507" cy="109.063" rx="2.683" ry="2.655" fill="#fff" opacity=".871"/><ellipse cx="192.314" cy="72.428" rx="6.563" ry="6.148" fill="#fff" opacity="-.172" filter="url(#a)"/><ellipse cx="192.314" cy="72.428" rx="3.405" ry="3.074" fill="#fff" opacity="-.172"/><ellipse cx="322.367" cy="109.351" rx="6.672" ry="6.621" fill="#fff" opacity=".316" filter="url(#a)"/><ellipse cx="322.367" cy="109.351" rx="3.529" ry="3.311" fill="#fff" opacity=".316"/><ellipse cx="419.873" cy="133.029" rx="5.275" ry="5.152" fill="#fff" filter="url(#a)"/><ellipse cx="419.873" cy="133.029" rx="2.933" ry="2.576" fill="#fff" opacity=".706"/><ellipse cx="508.342" cy="86.287" rx="4.564" ry="4.412" fill="#fff" opacity=".424" filter="url(#a)"/><ellipse cx="508.342" cy="86.287" rx="2.214" ry="2.206" fill="#fff" opacity=".424"/><ellipse cx="616.435" cy="98.147" rx="6.286" ry="6.251" fill="#fff" opacity=".161" filter="url(#a)"/><ellipse cx="616.435" cy="98.147" rx="3.487" ry="3.126" fill="#fff" opacity=".161"/><ellipse cx="807.277" cy="117.833" rx="6.849" ry="6.608" fill="#fff" opacity=".173" filter="url(#a)"/><ellipse cx="807.277" cy="117.833" rx="3.765" ry="3.304" fill="#fff" opacity=".173"/><ellipse cx="841.238" cy="86.483" rx="5.739" ry="5.308" fill="#fff" filter="url(#a)"/><ellipse cx="841.238" cy="86.483" rx="2.792" ry="2.654" fill="#fff" opacity=".71"/><ellipse cx="1015.109" cy="114.254" rx="4.61" ry="4.254" fill="#fff" opacity=".114" filter="url(#a)"/><ellipse cx="1015.109" cy="114.254" rx="2.537" ry="2.127" fill="#fff" opacity=".114"/><ellipse cx="1095.764" cy="85.031" rx="6.379" ry="6.378" fill="#fff" filter="url(#a)"/><ellipse cx="1095.764" cy="85.031" rx="3.433" ry="3.189" fill="#fff" opacity=".593"/><ellipse cx="1198.176" cy="127.865" rx="4.06" ry="3.805" fill="#fff" opacity=".386" filter="url(#a)"/><ellipse cx="1198.176" cy="127.865" rx="2.258" ry="1.903" fill="#fff" opacity=".386"/><ellipse cx="1322.824" cy="117.806" rx="4.898" ry="4.887" fill="#fff" opacity="-.205" filter="url(#a)"/><ellipse cx="1322.824" cy="117.806" rx="2.7" ry="2.443" fill="#fff" opacity="-.205"/><ellipse cx="1428.06" cy="67.227" rx="4.366" ry="4.157" fill="#fff" opacity=".139" filter="url(#a)"/><ellipse cx="1428.06" cy="67.227" rx="2.466" ry="2.078" fill="#fff" opacity=".139"/><ellipse cx="1538.652" cy="85.919" rx="5.626" ry="5.527" fill="#fff" filter="url(#a)"/><ellipse cx="1538.652" cy="85.919" rx="2.914" ry="2.763" fill="#fff" opacity=".717"/><ellipse cx="1737.853" cy="89.553" rx="5.309" ry="5.286" fill="#fff" opacity=".484" filter="url(#a)"/><ellipse cx="1737.853" cy="89.553" rx="2.893" ry="2.643" fill="#fff" opacity=".484"/><ellipse cx="1872.001" cy="122.747" rx="5.346" ry="5.159" fill="#fff" filter="url(#a)"/><ellipse cx="1872.001" cy="122.747" rx="2.98" ry="2.579" fill="#fff" opacity=".704"/><ellipse cx="1939.31" cy="94.574" rx="4.261" ry="3.919" fill="#fff" opacity=".488" filter="url(#a)"/><ellipse cx="1939.31" cy="94.574" rx="2.088" ry="1.96" fill="#fff" opacity=".488"/><ellipse cx="7.796" cy="162.814" rx="4.503" ry="4.455" fill="#fff" filter="url(#a)"/><ellipse cx="7.796" cy="162.814" rx="2.68" ry="2.227" fill="#fff" opacity=".763"/><ellipse cx="134.954" cy="142.934" rx="3.91" ry="3.434" fill="#fff" opacity=".402" filter="url(#a)"/><ellipse cx="134.954" cy="142.934" rx="2.141" ry="1.717" fill="#fff" opacity=".402"/><ellipse cx="352.695" cy="168.577" rx="6.301" ry="5.993" fill="#fff" filter="url(#a)"/><ellipse cx="352.695" cy="168.577" rx="3.309" ry="2.997" fill="#fff" opacity=".612"/><ellipse cx="371.687" cy="168.577" rx="5.77" ry="5.55" fill="#fff" filter="url(#a)"/><ellipse cx="371.687" cy="168.577" rx="2.781" ry="2.775" fill="#fff" opacity=".687"/><ellipse cx="508.587" cy="154.853" rx="6.972" ry="6.602" fill="#fff" opacity=".441" filter="url(#a)"/><ellipse cx="508.587" cy="154.853" rx="3.728" ry="3.301" fill="#fff" opacity=".441"/><ellipse cx="635.165" cy="192.574" rx="5.852" ry="5.359" fill="#fff" filter="url(#a)"/><ellipse cx="635.165" cy="192.574" rx="3.029" ry="2.68" fill="#fff" opacity=".535"/><ellipse cx="728.99" cy="177.362" rx="4.73" ry="4.574" fill="#fff" opacity=".462" filter="url(#a)"/><ellipse cx="728.99" cy="177.362" rx="2.683" ry="2.287" fill="#fff" opacity=".462"/><ellipse cx="895.402" cy="195.691" rx="6.052" ry="5.844" fill="#fff" filter="url(#a)"/><ellipse cx="895.402" cy="195.691" rx="3.384" ry="2.922" fill="#fff" opacity=".772"/><ellipse cx="952.186" cy="155.012" rx="6.802" ry="6.401" fill="#fff" filter="url(#a)"/><ellipse cx="952.186" cy="155.012" rx="3.363" ry="3.2" fill="#fff" opacity=".541"/><ellipse cx="1081.265" cy="163.095" rx="6.091" ry="5.88" fill="#fff" filter="url(#a)"/><ellipse cx="1081.265" cy="163.095" rx="3.365" ry="2.94" fill="#fff" opacity=".685"/><ellipse cx="1180.856" cy="149.383" rx="6.218" ry="5.926" fill="#fff" filter="url(#a)"/><ellipse cx="1180.856" cy="149.383" rx="3.141" ry="2.963" fill="#fff" opacity=".586"/><ellipse cx="1369.987" cy="138.018" rx="4.316" ry="4.305" fill="#fff" opacity="-.007" filter="url(#a)"/><ellipse cx="1369.987" cy="138.018" rx="2.327" ry="2.153" fill="#fff" opacity="-.007"/><ellipse cx="1520.616" cy="166.548" rx="6.379" ry="5.963" fill="#fff" filter="url(#a)"/><ellipse cx="1520.616" cy="166.548" rx="3.338" ry="2.981" fill="#fff" opacity=".892"/><ellipse cx="1628.29" cy="140.033" rx="4.821" ry="4.749" fill="#fff" opacity=".168" filter="url(#a)"/><ellipse cx="1628.29" cy="140.033" rx="2.58" ry="2.375" fill="#fff" opacity=".168"/><ellipse cx="1653.673" cy="190.743" rx="3.62" ry="3.608" fill="#fff" opacity=".486" filter="url(#a)"/><ellipse cx="1653.673" cy="190.743" rx="1.823" ry="1.804" fill="#fff" opacity=".486"/><ellipse cx="1794.26" cy="163.253" rx="6.45" ry="6.208" fill="#fff" opacity=".346" filter="url(#a)"/><ellipse cx="1794.26" cy="163.253" rx="3.563" ry="3.104" fill="#fff" opacity=".346"/><ellipse cx="1918.733" cy="169.166" rx="6.553" ry="6.348" fill="#fff" opacity=".109" filter="url(#a)"/><ellipse cx="1918.733" cy="169.166" rx="3.352" ry="3.174" fill="#fff" opacity=".109"/><ellipse cx="55.683" cy="205.4" rx="4.02" ry="3.702" fill="#fff" filter="url(#a)"/><ellipse cx="55.683" cy="205.4" rx="2.281" ry="1.851" fill="#fff" opacity=".598"/><ellipse cx="166.113" cy="236.606" rx="3.775" ry="3.41" fill="#fff" filter="url(#a)"/><ellipse cx="166.113" cy="236.606" rx="2.17" ry="1.705" fill="#fff" opacity=".657"/><ellipse cx="293.565" cy="211.229" rx="5.775" ry="5.284" fill="#fff" opacity=".003" filter="url(#a)"/><ellipse cx="293.565" cy="211.229" rx="3.002" ry="2.642" fill="#fff" opacity=".003"/><ellipse cx="464.75" cy="257.534" rx="4.804" ry="4.616" fill="#fff" filter="url(#a)"/><ellipse cx="464.75" cy="257.534" rx="2.479" ry="2.308" fill="#fff" opacity=".677"/><ellipse cx="523.62" cy="225.833" rx="4.538" ry="4.379" fill="#fff" opacity=".159" filter="url(#a)"/><ellipse cx="523.62" cy="225.833" rx="2.381" ry="2.19" fill="#fff" opacity=".159"/><ellipse cx="600.51" cy="228.202" rx="6.032" ry="5.584" fill="#fff" opacity=".386" filter="url(#a)"/><ellipse cx="600.51" cy="228.202" rx="3.048" ry="2.792" fill="#fff" opacity=".386"/><ellipse cx="725.182" cy="209.383" rx="5.206" ry="4.721" fill="#fff" filter="url(#a)"/><ellipse cx="725.182" cy="209.383" rx="2.721" ry="2.36" fill="#fff" opacity=".72"/><ellipse cx="866.811" cy="229.895" rx="3.623" ry="3.504" fill="#fff" opacity=".438" filter="url(#a)"/><ellipse cx="866.811" cy="229.895" rx="2.011" ry="1.752" fill="#fff" opacity=".438"/><ellipse cx="1029.624" cy="210.904" rx="3.456" ry="3.416" fill="#fff" opacity=".329" filter="url(#a)"/><ellipse cx="1029.624" cy="210.904" rx="2" ry="1.708" fill="#fff" opacity=".329"/><ellipse cx="1173.627" cy="249.837" rx="4.987" ry="4.621" fill="#fff" opacity=".001" filter="url(#a)"/><ellipse cx="1173.627" cy="249.837" rx="2.712" ry="2.311" fill="#fff" opacity=".001"/><ellipse cx="1196.452" cy="237.076" rx="6.915" ry="6.636" fill="#fff" opacity=".181" filter="url(#a)"/><ellipse cx="1196.452" cy="237.076" rx="3.578" ry="3.318" fill="#fff" opacity=".181"/><ellipse cx="1380.633" cy="228.69" rx="5.229" ry="5.026" fill="#fff" opacity="-.07" filter="url(#a)"/><ellipse cx="1380.633" cy="228.69" rx="2.604" ry="2.513" fill="#fff" opacity="-.07"/><ellipse cx="1430.55" cy="249.781" rx="3.427" ry="3.39" fill="#fff" filter="url(#a)"/><ellipse cx="1430.55" cy="249.781" rx="1.854" ry="1.695" fill="#fff" opacity=".503"/><ellipse cx="1634.143" cy="210.724" rx="4.41" ry="4.205" fill="#fff" opacity=".047" filter="url(#a)"/><ellipse cx="1634.143" cy="210.724" rx="2.519" ry="2.102" fill="#fff" opacity=".047"/><ellipse cx="1730.628" cy="244.49" rx="6.461" ry="6.367" fill="#fff" opacity=".202" filter="url(#a)"/><ellipse cx="1730.628" cy="244.49" rx="3.497" ry="3.183" fill="#fff" opacity=".202"/><ellipse cx="1837.905" cy="261.53" rx="4.87" ry="4.865" fill="#fff" opacity="-.099" filter="url(#a)"/><ellipse cx="1837.905" cy="261.53" rx="2.599" ry="2.433" fill="#fff" opacity="-.099"/><circle cx="1997.963" cy="267.644" fill="#fff" opacity="-.235" filter="url(#a)" r="6.035"/><ellipse cx="1997.963" cy="267.644" rx="3.062" ry="3.017" fill="#fff" opacity="-.235"/><ellipse cx="53.625" cy="280.967" rx="4.507" ry="4.164" fill="#fff" opacity=".242" filter="url(#a)"/><ellipse cx="53.625" cy="280.967" rx="2.449" ry="2.082" fill="#fff" opacity=".242"/><ellipse cx="229.431" cy="275.568" rx="3.785" ry="3.595" fill="#fff" filter="url(#a)"/><ellipse cx="229.431" cy="275.568" rx="2.296" ry="1.798" fill="#fff" opacity=".68"/><ellipse cx="237.511" cy="308.528" rx="5.327" ry="4.882" fill="#fff" opacity=".488" filter="url(#a)"/><ellipse cx="237.511" cy="308.528" rx="2.632" ry="2.441" fill="#fff" opacity=".488"/><ellipse cx="422.283" cy="309.428" rx="3.811" ry="3.701" fill="#fff" opacity=".148" filter="url(#a)"/><ellipse cx="422.283" cy="309.428" rx="1.946" ry="1.851" fill="#fff" opacity=".148"/><ellipse cx="480.689" cy="310.099" rx="5.507" ry="5.186" fill="#fff" filter="url(#a)"/><ellipse cx="480.689" cy="310.099" rx="2.923" ry="2.593" fill="#fff" opacity=".61"/><ellipse cx="646.384" cy="325.265" rx="3.475" ry="3.473" fill="#fff" opacity=".286" filter="url(#a)"/><ellipse cx="646.384" cy="325.265" rx="2.085" ry="1.736" fill="#fff" opacity=".286"/><ellipse cx="732.989" cy="327.123" rx="3.962" ry="3.492" fill="#fff" opacity=".308" filter="url(#a)"/><ellipse cx="732.989" cy="327.123" rx="1.907" ry="1.746" fill="#fff" opacity=".308"/><ellipse cx="881.636" cy="301.898" rx="4.855" ry="4.367" fill="#fff" opacity=".315" filter="url(#a)"/><ellipse cx="881.636" cy="301.898" rx="2.242" ry="2.183" fill="#fff" opacity=".315"/><ellipse cx="970.646" cy="309.199" rx="6.396" ry="6.055" fill="#fff" filter="url(#a)"/><ellipse cx="970.646" cy="309.199" rx="3.157" ry="3.028" fill="#fff" opacity=".628"/><ellipse cx="1107.131" cy="272.563" rx="6.253" ry="6.069" fill="#fff" opacity="-.116" filter="url(#a)"/><ellipse cx="1107.131" cy="272.563" rx="3.464" ry="3.034" fill="#fff" opacity="-.116"/><ellipse cx="1238.408" cy="295.583" rx="5.335" ry="5.166" fill="#fff" filter="url(#a)"/><ellipse cx="1238.408" cy="295.583" rx="2.882" ry="2.583" fill="#fff" opacity=".842"/><ellipse cx="1343.208" cy="331.382" rx="6.326" ry="6.301" fill="#fff" opacity="-.153" filter="url(#a)"/><ellipse cx="1343.208" cy="331.382" rx="3.164" ry="3.151" fill="#fff" opacity="-.153"/><ellipse cx="1427.082" cy="328.585" rx="4.818" ry="4.667" fill="#fff" filter="url(#a)"/><ellipse cx="1427.082" cy="328.585" rx="2.703" ry="2.334" fill="#fff" opacity=".508"/><ellipse cx="1584.89" cy="316.281" rx="3.925" ry="3.823" fill="#fff" filter="url(#a)"/><ellipse cx="1584.89" cy="316.281" rx="1.965" ry="1.912" fill="#fff" opacity=".524"/><ellipse cx="1740.115" cy="310.751" rx="6.147" ry="6.006" fill="#fff" opacity=".373" filter="url(#a)"/><ellipse cx="1740.115" cy="310.751" rx="3.122" ry="3.003" fill="#fff" opacity=".373"/><ellipse cx="1829.624" cy="288.683" rx="4.828" ry="4.751" fill="#fff" opacity=".318" filter="url(#a)"/><ellipse cx="1829.624" cy="288.683" rx="2.803" ry="2.376" fill="#fff" opacity=".318"/><ellipse cx="1889.497" cy="283.478" rx="4.815" ry="4.739" fill="#fff" opacity="-.045" filter="url(#a)"/><ellipse cx="1889.497" cy="283.478" rx="2.678" ry="2.369" fill="#fff" opacity="-.045"/><ellipse cx="109.145" cy="381.274" rx="5.492" ry="5.069" fill="#fff" opacity=".088" filter="url(#a)"/><ellipse cx="109.145" cy="381.274" rx="2.643" ry="2.535" fill="#fff" opacity=".088"/><ellipse cx="203.678" cy="350.875" rx="4.983" ry="4.579" fill="#fff" opacity="-.06" filter="url(#a)"/><ellipse cx="203.678" cy="350.875" rx="2.721" ry="2.29" fill="#fff" opacity="-.06"/><ellipse cx="340.023" cy="338.839" rx="4.544" ry="4.521" fill="#fff" opacity=".461" filter="url(#a)"/><ellipse cx="340.023" cy="338.839" rx="2.364" ry="2.261" fill="#fff" opacity=".461"/><ellipse cx="386.52" cy="389.867" rx="5.081" ry="4.82" fill="#fff" filter="url(#a)"/><ellipse cx="386.52" cy="389.867" rx="2.482" ry="2.41" fill="#fff" opacity=".908"/><ellipse cx="514.042" cy="357.157" rx="6.018" ry="5.946" fill="#fff" opacity="-.086" filter="url(#a)"/><ellipse cx="514.042" cy="357.157" rx="3.172" ry="2.973" fill="#fff" opacity="-.086"/><ellipse cx="604.523" cy="401.056" rx="7.03" ry="6.55" fill="#fff" opacity="-.057" filter="url(#a)"/><ellipse cx="604.523" cy="401.056" rx="3.737" ry="3.275" fill="#fff" opacity="-.057"/><ellipse cx="710.018" cy="353.312" rx="6.071" ry="5.799" fill="#fff" opacity=".287" filter="url(#a)"/><ellipse cx="710.018" cy="353.312" rx="3.094" ry="2.9" fill="#fff" opacity=".287"/><ellipse cx="930.912" cy="382.808" rx="4.405" ry="4.263" fill="#fff" opacity=".484" filter="url(#a)"/><ellipse cx="930.912" cy="382.808" rx="2.174" ry="2.131" fill="#fff" opacity=".484"/><ellipse cx="987.29" cy="337.641" rx="5.387" ry="4.972" fill="#fff" filter="url(#a)"/><ellipse cx="987.29" cy="337.641" rx="2.875" ry="2.486" fill="#fff" opacity=".933"/><ellipse cx="1170.604" cy="369.84" rx="6.574" ry="6.515" fill="#fff" opacity=".171" filter="url(#a)"/><ellipse cx="1170.604" cy="369.84" rx="3.437" ry="3.258" fill="#fff" opacity=".171"/><ellipse cx="1212.144" cy="340.176" rx="4.834" ry="4.779" fill="#fff" opacity=".392" filter="url(#a)"/><ellipse cx="1212.144" cy="340.176" rx="2.657" ry="2.39" fill="#fff" opacity=".392"/><ellipse cx="1358.892" cy="360.64" rx="6.261" ry="5.808" fill="#fff" filter="url(#a)"/><ellipse cx="1358.892" cy="360.64" rx="3.074" ry="2.904" fill="#fff" opacity=".635"/><ellipse cx="1504.147" cy="397.932" rx="3.89" ry="3.691" fill="#fff" filter="url(#a)"/><ellipse cx="1504.147" cy="397.932" rx="2.126" ry="1.845" fill="#fff" opacity=".676"/><ellipse cx="1558.918" cy="383.687" rx="6.981" ry="6.592" fill="#fff" filter="url(#a)"/><ellipse cx="1558.918" cy="383.687" rx="3.297" ry="3.296" fill="#fff" opacity=".63"/><ellipse cx="1661.106" cy="401.85" rx="3.651" ry="3.548" fill="#fff" filter="url(#a)"/><ellipse cx="1661.106" cy="401.85" rx="1.944" ry="1.774" fill="#fff" opacity=".614"/><ellipse cx="1852.611" cy="364.145" rx="5.948" ry="5.678" fill="#fff" opacity=".267" filter="url(#a)"/><ellipse cx="1852.611" cy="364.145" rx="3.268" ry="2.839" fill="#fff" opacity=".267"/><ellipse cx="1936.736" cy="378.79" rx="4.048" ry="3.602" fill="#fff" opacity="-.112" filter="url(#a)"/><ellipse cx="1936.736" cy="378.79" rx="1.845" ry="1.801" fill="#fff" opacity="-.112"/><ellipse cx="89.405" cy="427.491" rx="4.631" ry="4.27" fill="#fff" opacity=".393" filter="url(#a)"/><ellipse cx="89.405" cy="427.491" rx="2.153" ry="2.135" fill="#fff" opacity=".393"/><ellipse cx="139.052" cy="403.155" rx="6.735" ry="6.566" fill="#fff" filter="url(#a)"/><ellipse cx="139.052" cy="403.155" rx="3.776" ry="3.283" fill="#fff" opacity=".56"/><ellipse cx="333.037" cy="453.532" rx="4.9" ry="4.57" fill="#fff" opacity=".01" filter="url(#a)"/><ellipse cx="333.037" cy="453.532" rx="2.447" ry="2.285" fill="#fff" opacity=".01"/><ellipse cx="410.31" cy="468.443" rx="5.992" ry="5.606" fill="#fff" opacity=".437" filter="url(#a)"/><ellipse cx="410.31" cy="468.443" rx="2.83" ry="2.803" fill="#fff" opacity=".437"/><ellipse cx="498.71" cy="432.653" rx="6.073" ry="5.655" fill="#fff" filter="url(#a)"/><circle cx="498.71" cy="432.653" fill="#fff" opacity=".658" r="2.828"/><ellipse cx="671.579" cy="436.324" rx="5.494" ry="5.215" fill="#fff" opacity="-.056" filter="url(#a)"/><ellipse cx="671.579" cy="436.324" rx="2.695" ry="2.607" fill="#fff" opacity="-.056"/><ellipse cx="788.399" cy="423.062" rx="6.69" ry="6.456" fill="#fff" opacity=".483" filter="url(#a)"/><ellipse cx="788.399" cy="423.062" rx="3.649" ry="3.228" fill="#fff" opacity=".483"/><ellipse cx="853.299" cy="410.636" rx="6.536" ry="6.092" fill="#fff" opacity=".478" filter="url(#a)"/><ellipse cx="853.299" cy="410.636" rx="3.525" ry="3.046" fill="#fff" opacity=".478"/><ellipse cx="1024.15" cy="443.515" rx="4.966" ry="4.716" fill="#fff" opacity=".169" filter="url(#a)"/><ellipse cx="1024.15" cy="443.515" rx="2.568" ry="2.358" fill="#fff" opacity=".169"/><ellipse cx="1163.849" cy="431.56" rx="3.943" ry="3.52" fill="#fff" opacity=".015" filter="url(#a)"/><ellipse cx="1163.849" cy="431.56" rx="2.24" ry="1.76" fill="#fff" opacity=".015"/><ellipse cx="1261.54" cy="461.833" rx="4.944" ry="4.62" fill="#fff" filter="url(#a)"/><ellipse cx="1261.54" cy="461.833" rx="2.729" ry="2.31" fill="#fff" opacity=".588"/><ellipse cx="1387.928" cy="439.219" rx="6.614" ry="6.483" fill="#fff" opacity=".297" filter="url(#a)"/><ellipse cx="1387.928" cy="439.219" rx="3.478" ry="3.242" fill="#fff" opacity=".297"/><ellipse cx="1496.373" cy="427.904" rx="4.998" ry="4.896" fill="#fff" opacity=".151" filter="url(#a)"/><ellipse cx="1496.373" cy="427.904" rx="2.909" ry="2.448" fill="#fff" opacity=".151"/><ellipse cx="1558.878" cy="438.111" rx="5.245" ry="5.089" fill="#fff" filter="url(#a)"/><ellipse cx="1558.878" cy="438.111" rx="2.642" ry="2.545" fill="#fff" opacity=".733"/><ellipse cx="1766.512" cy="447.396" rx="5.82" ry="5.334" fill="#fff" opacity=".188" filter="url(#a)"/><ellipse cx="1766.512" cy="447.396" rx="2.752" ry="2.667" fill="#fff" opacity=".188"/><ellipse cx="1793.521" cy="415.696" rx="3.595" ry="3.436" fill="#fff" opacity="-.223" filter="url(#a)"/><ellipse cx="1793.521" cy="415.696" rx="1.955" ry="1.718" fill="#fff" opacity="-.223"/><ellipse cx="1913.657" cy="408.407" rx="4.767" ry="4.749" fill="#fff" opacity="-.23" filter="url(#a)"/><ellipse cx="1913.657" cy="408.407" rx="2.63" ry="2.375" fill="#fff" opacity="-.23"/><ellipse cx="40.612" cy="484.605" rx="6.116" ry="5.799" fill="#fff" opacity="-.253" filter="url(#a)"/><ellipse cx="40.612" cy="484.605" rx="3.258" ry="2.9" fill="#fff" opacity="-.253"/><ellipse cx="118.291" cy="519.09" rx="5.77" ry="5.357" fill="#fff" opacity="-.189" filter="url(#a)"/><ellipse cx="118.291" cy="519.09" rx="3.042" ry="2.679" fill="#fff" opacity="-.189"/><ellipse cx="321.823" cy="517.185" rx="6.773" ry="6.598" fill="#fff" opacity=".054" filter="url(#a)"/><ellipse cx="321.823" cy="517.185" rx="3.543" ry="3.299" fill="#fff" opacity=".054"/><ellipse cx="429.012" cy="477.57" rx="4.315" ry="3.942" fill="#fff" filter="url(#a)"/><ellipse cx="429.012" cy="477.57" rx="2.449" ry="1.971" fill="#fff" opacity=".857"/><ellipse cx="527.054" cy="504.152" rx="5.56" ry="5.082" fill="#fff" filter="url(#a)"/><ellipse cx="527.054" cy="504.152" rx="2.779" ry="2.541" fill="#fff" opacity=".738"/><ellipse cx="645.959" cy="477.777" rx="3.673" ry="3.399" fill="#fff" opacity="-.203" filter="url(#a)"/><ellipse cx="645.959" cy="477.777" rx="1.965" ry="1.7" fill="#fff" opacity="-.203"/><ellipse cx="823.04" cy="502.843" rx="5.879" ry="5.686" fill="#fff" opacity=".085" filter="url(#a)"/><ellipse cx="823.04" cy="502.843" rx="3.249" ry="2.843" fill="#fff" opacity=".085"/><ellipse cx="860.743" cy="519.238" rx="3.929" ry="3.718" fill="#fff" filter="url(#a)"/><ellipse cx="860.743" cy="519.238" rx="2.263" ry="1.859" fill="#fff" opacity=".773"/><ellipse cx="960.614" cy="518.149" rx="3.61" ry="3.45" fill="#fff" opacity=".341" filter="url(#a)"/><ellipse cx="960.614" cy="518.149" rx="2.023" ry="1.725" fill="#fff" opacity=".341"/><ellipse cx="1151.775" cy="486.28" rx="5.244" ry="4.904" fill="#fff" opacity=".317" filter="url(#a)"/><ellipse cx="1151.775" cy="486.28" rx="2.504" ry="2.452" fill="#fff" opacity=".317"/><ellipse cx="1226.287" cy="511.405" rx="4.987" ry="4.585" fill="#fff" filter="url(#a)"/><ellipse cx="1226.287" cy="511.405" rx="2.631" ry="2.293" fill="#fff" opacity=".68"/><ellipse cx="1298.73" cy="514.675" rx="5.799" ry="5.513" fill="#fff" opacity=".315" filter="url(#a)"/><ellipse cx="1298.73" cy="514.675" rx="3.241" ry="2.756" fill="#fff" opacity=".315"/><ellipse cx="1469.186" cy="479.485" rx="6.239" ry="6.051" fill="#fff" filter="url(#a)"/><ellipse cx="1469.186" cy="479.485" rx="3.265" ry="3.026" fill="#fff" opacity=".545"/><ellipse cx="1600.091" cy="515.163" rx="6.781" ry="6.447" fill="#fff" opacity=".031" filter="url(#a)"/><ellipse cx="1600.091" cy="515.163" rx="3.562" ry="3.224" fill="#fff" opacity=".031"/><ellipse cx="1710.445" cy="474.947" rx="4.866" ry="4.799" fill="#fff" opacity=".017" filter="url(#a)"/><ellipse cx="1710.445" cy="474.947" rx="2.605" ry="2.399" fill="#fff" opacity=".017"/><ellipse cx="1797.916" cy="492.638" rx="4.873" ry="4.388" fill="#fff" opacity=".039" filter="url(#a)"/><ellipse cx="1797.916" cy="492.638" rx="2.437" ry="2.194" fill="#fff" opacity=".039"/><ellipse cx="1927.151" cy="489.741" rx="5.733" ry="5.335" fill="#fff" opacity="-.168" filter="url(#a)"/><ellipse cx="1927.151" cy="489.741" rx="2.99" ry="2.667" fill="#fff" opacity="-.168"/><ellipse cx="55.644" cy="548.069" rx="4.223" ry="3.842" fill="#fff" filter="url(#a)"/><ellipse cx="55.644" cy="548.069" rx="2.016" ry="1.921" fill="#fff" opacity=".72"/><ellipse cx="163.875" cy="594.371" rx="6.536" ry="6.499" fill="#fff" filter="url(#a)"/><ellipse cx="163.875" cy="594.371" rx="3.595" ry="3.249" fill="#fff" opacity=".559"/><ellipse cx="260.187" cy="591.519" rx="4.335" ry="4.295" fill="#fff" opacity="-.219" filter="url(#a)"/><ellipse cx="260.187" cy="591.519" rx="2.216" ry="2.148" fill="#fff" opacity="-.219"/><ellipse cx="433.107" cy="594.903" rx="4.324" ry="4.306" fill="#fff" opacity=".308" filter="url(#a)"/><ellipse cx="433.107" cy="594.903" rx="2.2" ry="2.153" fill="#fff" opacity=".308"/><ellipse cx="502.575" cy="597.452" rx="5.017" ry="4.918" fill="#fff" filter="url(#a)"/><ellipse cx="502.575" cy="597.452" rx="2.541" ry="2.459" fill="#fff" opacity=".568"/><ellipse cx="695.542" cy="539.219" rx="6.941" ry="6.613" fill="#fff" opacity=".16" filter="url(#a)"/><ellipse cx="695.542" cy="539.219" rx="3.44" ry="3.306" fill="#fff" opacity=".16"/><ellipse cx="794.068" cy="559.081" rx="5.581" ry="5.247" fill="#fff" opacity=".258" filter="url(#a)"/><ellipse cx="794.068" cy="559.081" rx="3.018" ry="2.624" fill="#fff" opacity=".258"/><ellipse cx="923.54" cy="597.496" rx="6.178" ry="5.914" fill="#fff" filter="url(#a)"/><ellipse cx="923.54" cy="597.496" rx="3.021" ry="2.957" fill="#fff" opacity=".626"/><ellipse cx="1007.212" cy="539.353" rx="6.162" ry="6.052" fill="#fff" opacity=".478" filter="url(#a)"/><ellipse cx="1007.212" cy="539.353" rx="3.074" ry="3.026" fill="#fff" opacity=".478"/><ellipse cx="1065.632" cy="554.204" rx="5.196" ry="4.702" fill="#fff" opacity=".185" filter="url(#a)"/><ellipse cx="1065.632" cy="554.204" rx="2.848" ry="2.351" fill="#fff" opacity=".185"/><ellipse cx="1240.965" cy="597.629" rx="4.705" ry="4.274" fill="#fff" opacity=".162" filter="url(#a)"/><ellipse cx="1240.965" cy="597.629" rx="2.168" ry="2.137" fill="#fff" opacity=".162"/><ellipse cx="1361.773" cy="588.66" rx="5.306" ry="5.103" fill="#fff" filter="url(#a)"/><ellipse cx="1361.773" cy="588.66" rx="2.724" ry="2.551" fill="#fff" opacity=".734"/><ellipse cx="1487.641" cy="591.492" rx="6.618" ry="6.411" fill="#fff" opacity=".45" filter="url(#a)"/><ellipse cx="1487.641" cy="591.492" rx="3.621" ry="3.205" fill="#fff" opacity=".45"/><ellipse cx="1554.955" cy="561.592" rx="7.04" ry="6.624" fill="#fff" opacity=".184" filter="url(#a)"/><ellipse cx="1554.955" cy="561.592" rx="3.313" ry="3.312" fill="#fff" opacity=".184"/><ellipse cx="1729.66" cy="541.203" rx="5.204" ry="5.023" fill="#fff" filter="url(#a)"/><ellipse cx="1729.66" cy="541.203" rx="2.693" ry="2.512" fill="#fff" opacity=".638"/><ellipse cx="1808.695" cy="546.268" rx="6.909" ry="6.613" fill="#fff" opacity=".385" filter="url(#a)"/><ellipse cx="1808.695" cy="546.268" rx="3.409" ry="3.307" fill="#fff" opacity=".385"/><ellipse cx="2002.222" cy="576.172" rx="3.726" ry="3.478" fill="#fff" opacity=".355" filter="url(#a)"/><ellipse cx="2002.222" cy="576.172" rx="2.073" ry="1.739" fill="#fff" opacity=".355"/><ellipse cx="105.617" cy="629.336" rx="5.048" ry="4.578" fill="#fff" opacity=".149" filter="url(#a)"/><ellipse cx="105.617" cy="629.336" rx="2.678" ry="2.289" fill="#fff" opacity=".149"/><ellipse cx="131.456" cy="611.751" rx="3.417" ry="3.407" fill="#fff" opacity=".232" filter="url(#a)"/><ellipse cx="131.456" cy="611.751" rx="2.045" ry="1.703" fill="#fff" opacity=".232"/><ellipse cx="260.037" cy="664.778" rx="3.949" ry="3.767" fill="#fff" opacity=".471" filter="url(#a)"/><ellipse cx="260.037" cy="664.778" rx="1.906" ry="1.884" fill="#fff" opacity=".471"/><ellipse cx="356.002" cy="643.503" rx="6.645" ry="6.529" fill="#fff" opacity="-.07" filter="url(#a)"/><ellipse cx="356.002" cy="643.503" rx="3.302" ry="3.264" fill="#fff" opacity="-.07"/><ellipse cx="480.159" cy="610.207" rx="4.207" ry="3.922" fill="#fff" opacity=".017" filter="url(#a)"/><ellipse cx="480.159" cy="610.207" rx="2.291" ry="1.961" fill="#fff" opacity=".017"/><ellipse cx="700.096" cy="627.546" rx="4.29" ry="4.047" fill="#fff" opacity="-.081" filter="url(#a)"/><ellipse cx="700.096" cy="627.546" rx="2.089" ry="2.024" fill="#fff" opacity="-.081"/><ellipse cx="777.478" cy="653.641" rx="6.311" ry="5.834" fill="#fff" filter="url(#a)"/><ellipse cx="777.478" cy="653.641" rx="3.141" ry="2.917" fill="#fff" opacity=".842"/><ellipse cx="864.106" cy="626.538" rx="5.872" ry="5.607" fill="#fff" opacity=".319" filter="url(#a)"/><ellipse cx="864.106" cy="626.538" rx="3.003" ry="2.804" fill="#fff" opacity=".319"/><ellipse cx="982.615" cy="647.79" rx="4.77" ry="4.39" fill="#fff" opacity=".425" filter="url(#a)"/><ellipse cx="982.615" cy="647.79" rx="2.32" ry="2.195" fill="#fff" opacity=".425"/><ellipse cx="1139.159" cy="667.259" rx="6.5" ry="6.095" fill="#fff" filter="url(#a)"/><ellipse cx="1139.159" cy="667.259" rx="3.203" ry="3.047" fill="#fff" opacity=".668"/><ellipse cx="1294.259" cy="619.504" rx="5.768" ry="5.311" fill="#fff" filter="url(#a)"/><ellipse cx="1294.259" cy="619.504" rx="2.99" ry="2.656" fill="#fff" opacity=".617"/><ellipse cx="1350.92" cy="654.825" rx="6.915" ry="6.424" fill="#fff" opacity="-.079" filter="url(#a)"/><ellipse cx="1350.92" cy="654.825" rx="3.705" ry="3.212" fill="#fff" opacity="-.079"/><ellipse cx="1451.989" cy="641.66" rx="6.066" ry="5.93" fill="#fff" filter="url(#a)"/><ellipse cx="1451.989" cy="641.66" rx="3.443" ry="2.965" fill="#fff" opacity=".669"/><ellipse cx="1576.783" cy="641.483" rx="4.185" ry="4.031" fill="#fff" filter="url(#a)"/><ellipse cx="1576.783" cy="641.483" rx="2.456" ry="2.016" fill="#fff" opacity=".787"/><ellipse cx="1684.934" cy="664.135" rx="5.922" ry="5.578" fill="#fff" opacity=".376" filter="url(#a)"/><ellipse cx="1684.934" cy="664.135" rx="2.849" ry="2.789" fill="#fff" opacity=".376"/><ellipse cx="1833.074" cy="628.896" rx="6.17" ry="6.098" fill="#fff" opacity="-.034" filter="url(#a)"/><ellipse cx="1833.074" cy="628.896" rx="3.053" ry="3.049" fill="#fff" opacity="-.034"/><ellipse cx="1919.404" cy="604.877" rx="4.839" ry="4.385" fill="#fff" filter="url(#a)"/><ellipse cx="1919.404" cy="604.877" rx="2.302" ry="2.192" fill="#fff" opacity=".745"/><ellipse cx="38.88" cy="679.539" rx="6.642" ry="6.633" fill="#fff" opacity="-.114" filter="url(#a)"/><ellipse cx="38.88" cy="679.539" rx="3.674" ry="3.317" fill="#fff" opacity="-.114"/><ellipse cx="211.96" cy="678.214" rx="3.514" ry="3.485" fill="#fff" filter="url(#a)"/><ellipse cx="211.96" cy="678.214" rx="2.243" ry="1.743" fill="#fff" opacity=".526"/><ellipse cx="299.298" cy="698.188" rx="4.29" ry="4.261" fill="#fff" opacity=".098" filter="url(#a)"/><ellipse cx="299.298" cy="698.188" rx="2.182" ry="2.13" fill="#fff" opacity=".098"/><ellipse cx="389.627" cy="710.393" rx="5.45" ry="5.207" fill="#fff" filter="url(#a)"/><ellipse cx="389.627" cy="710.393" rx="3.073" ry="2.604" fill="#fff" opacity=".814"/><ellipse cx="568.149" cy="718.319" rx="5.129" ry="4.908" fill="#fff" opacity=".146" filter="url(#a)"/><ellipse cx="568.149" cy="718.319" rx="2.597" ry="2.454" fill="#fff" opacity=".146"/><ellipse cx="633.34" cy="684.9" rx="5.621" ry="5.45" fill="#fff" opacity=".42" filter="url(#a)"/><ellipse cx="633.34" cy="684.9" rx="2.767" ry="2.725" fill="#fff" opacity=".42"/><ellipse cx="758.045" cy="710.591" rx="6.321" ry="6.076" fill="#fff" opacity=".216" filter="url(#a)"/><ellipse cx="758.045" cy="710.591" rx="3.467" ry="3.038" fill="#fff" opacity=".216"/><ellipse cx="881.394" cy="689.304" rx="5.448" ry="5.185" fill="#fff" filter="url(#a)"/><ellipse cx="881.394" cy="689.304" rx="2.693" ry="2.592" fill="#fff" opacity=".626"/><ellipse cx="1019.328" cy="707.807" rx="3.654" ry="3.507" fill="#fff" filter="url(#a)"/><ellipse cx="1019.328" cy="707.807" rx="1.825" ry="1.754" fill="#fff" opacity=".505"/><ellipse cx="1068.266" cy="734.779" rx="4.596" ry="4.503" fill="#fff" filter="url(#a)"/><ellipse cx="1068.266" cy="734.779" rx="2.627" ry="2.252" fill="#fff" opacity=".728"/><ellipse cx="1197.086" cy="695.561" rx="6.825" ry="6.504" fill="#fff" opacity=".146" filter="url(#a)"/><ellipse cx="1197.086" cy="695.561" rx="3.274" ry="3.252" fill="#fff" opacity=".146"/><ellipse cx="1375.332" cy="714.347" rx="3.873" ry="3.65" fill="#fff" opacity="-.05" filter="url(#a)"/><ellipse cx="1375.332" cy="714.347" rx="2.09" ry="1.825" fill="#fff" opacity="-.05"/><ellipse cx="1516.352" cy="701.936" rx="4.451" ry="4.058" fill="#fff" filter="url(#a)"/><ellipse cx="1516.352" cy="701.936" rx="2.528" ry="2.029" fill="#fff" opacity=".653"/><ellipse cx="1592.118" cy="678.317" rx="6.737" ry="6.419" fill="#fff" opacity=".026" filter="url(#a)"/><ellipse cx="1592.118" cy="678.317" rx="3.529" ry="3.21" fill="#fff" opacity=".026"/><ellipse cx="1673.419" cy="683.093" rx="4.857" ry="4.737" fill="#fff" opacity=".404" filter="url(#a)"/><ellipse cx="1673.419" cy="683.093" rx="2.606" ry="2.368" fill="#fff" opacity=".404"/><ellipse cx="1822.395" cy="682.251" rx="6.523" ry="6.129" fill="#fff" opacity=".308" filter="url(#a)"/><ellipse cx="1822.395" cy="682.251" rx="3.425" ry="3.065" fill="#fff" opacity=".308"/><ellipse cx="1933.316" cy="705.716" rx="6.625" ry="6.333" fill="#fff" filter="url(#a)"/><ellipse cx="1933.316" cy="705.716" rx="3.651" ry="3.166" fill="#fff" opacity=".675"/><ellipse cx="61.346" cy="798.88" rx="4.202" ry="3.959" fill="#fff" opacity=".155" filter="url(#a)"/><ellipse cx="61.346" cy="798.88" rx="2.188" ry="1.979" fill="#fff" opacity=".155"/><ellipse cx="150.549" cy="747.71" rx="3.746" ry="3.553" fill="#fff" filter="url(#a)"/><ellipse cx="150.549" cy="747.71" rx="2.17" ry="1.776" fill="#fff" opacity=".514"/><ellipse cx="294.299" cy="763.342" rx="6.791" ry="6.496" fill="#fff" opacity=".316" filter="url(#a)"/><ellipse cx="294.299" cy="763.342" rx="3.489" ry="3.248" fill="#fff" opacity=".316"/><ellipse cx="430.333" cy="763.127" rx="5.717" ry="5.375" fill="#fff" opacity="-.112" filter="url(#a)"/><ellipse cx="430.333" cy="763.127" rx="3.132" ry="2.687" fill="#fff" opacity="-.112"/><ellipse cx="587.199" cy="761.885" rx="5.235" ry="5.043" fill="#fff" filter="url(#a)"/><ellipse cx="587.199" cy="761.885" rx="2.589" ry="2.522" fill="#fff" opacity=".635"/><ellipse cx="622.201" cy="741.696" rx="4.851" ry="4.426" fill="#fff" filter="url(#a)"/><ellipse cx="622.201" cy="741.696" rx="2.324" ry="2.213" fill="#fff" opacity=".698"/><ellipse cx="764.171" cy="779.395" rx="5.95" ry="5.814" fill="#fff" filter="url(#a)"/><ellipse cx="764.171" cy="779.395" rx="3.377" ry="2.907" fill="#fff" opacity=".808"/><ellipse cx="862.227" cy="759.333" rx="5.631" ry="5.367" fill="#fff" filter="url(#a)"/><ellipse cx="862.227" cy="759.333" rx="3.002" ry="2.684" fill="#fff" opacity=".632"/><ellipse cx="975.158" cy="782.377" rx="4.104" ry="3.998" fill="#fff" opacity="-.194" filter="url(#a)"/><ellipse cx="975.158" cy="782.377" rx="2.152" ry="1.999" fill="#fff" opacity="-.194"/><ellipse cx="1130.581" cy="766.829" rx="3.682" ry="3.403" fill="#fff" opacity=".001" filter="url(#a)"/><ellipse cx="1130.581" cy="766.829" rx="1.735" ry="1.701" fill="#fff" opacity=".001"/><ellipse cx="1261.37" cy="766.736" rx="4.526" ry="4.482" fill="#fff" opacity="-.096" filter="url(#a)"/><ellipse cx="1261.37" cy="766.736" rx="2.692" ry="2.241" fill="#fff" opacity="-.096"/><ellipse cx="1394.978" cy="760.695" rx="4.129" ry="3.684" fill="#fff" filter="url(#a)"/><ellipse cx="1394.978" cy="760.695" rx="2.17" ry="1.842" fill="#fff" opacity=".51"/><ellipse cx="1451.43" cy="764.428" rx="3.566" ry="3.53" fill="#fff" opacity="-.123" filter="url(#a)"/><ellipse cx="1451.43" cy="764.428" rx="1.964" ry="1.765" fill="#fff" opacity="-.123"/><ellipse cx="1590.098" cy="737.714" rx="6.755" ry="6.504" fill="#fff" opacity=".145" filter="url(#a)"/><ellipse cx="1590.098" cy="737.714" rx="3.729" ry="3.252" fill="#fff" opacity=".145"/><ellipse cx="1663.61" cy="803.994" rx="4.266" ry="3.776" fill="#fff" opacity="-.115" filter="url(#a)"/><ellipse cx="1663.61" cy="803.994" rx="1.963" ry="1.888" fill="#fff" opacity="-.115"/><ellipse cx="1878.052" cy="741.017" rx="6.195" ry="6.188" fill="#fff" opacity=".264" filter="url(#a)"/><ellipse cx="1878.052" cy="741.017" rx="3.524" ry="3.094" fill="#fff" opacity=".264"/><ellipse cx="1898.963" cy="756.492" rx="4.905" ry="4.81" fill="#fff" filter="url(#a)"/><ellipse cx="1898.963" cy="756.492" rx="2.751" ry="2.405" fill="#fff" opacity=".605"/><ellipse cx="24.827" cy="837.453" rx="4.612" ry="4.237" fill="#fff" opacity=".441" filter="url(#a)"/><ellipse cx="24.827" cy="837.453" rx="2.274" ry="2.119" fill="#fff" opacity=".441"/><ellipse cx="167.546" cy="861.452" rx="3.787" ry="3.51" fill="#fff" opacity=".353" filter="url(#a)"/><ellipse cx="167.546" cy="861.452" rx="1.893" ry="1.755" fill="#fff" opacity=".353"/><ellipse cx="328.815" cy="844.318" rx="4.231" ry="3.856" fill="#fff" filter="url(#a)"/><ellipse cx="328.815" cy="844.318" rx="2.362" ry="1.928" fill="#fff" opacity=".64"/><ellipse cx="424.504" cy="841.99" rx="5.415" ry="5.037" fill="#fff" filter="url(#a)"/><ellipse cx="424.504" cy="841.99" rx="2.72" ry="2.519" fill="#fff" opacity=".686"/><ellipse cx="484.174" cy="818.781" rx="4.064" ry="3.91" fill="#fff" opacity=".457" filter="url(#a)"/><ellipse cx="484.174" cy="818.781" rx="2.417" ry="1.955" fill="#fff" opacity=".457"/><ellipse cx="607.566" cy="850.552" rx="5.905" ry="5.729" fill="#fff" opacity="-.23" filter="url(#a)"/><ellipse cx="607.566" cy="850.552" rx="3.314" ry="2.865" fill="#fff" opacity="-.23"/><ellipse cx="809.02" cy="826.776" rx="4.763" ry="4.587" fill="#fff" filter="url(#a)"/><ellipse cx="809.02" cy="826.776" rx="2.347" ry="2.293" fill="#fff" opacity=".61"/><ellipse cx="918.988" cy="867.68" rx="6.858" ry="6.401" fill="#fff" opacity=".133" filter="url(#a)"/><ellipse cx="918.988" cy="867.68" rx="3.407" ry="3.201" fill="#fff" opacity=".133"/><ellipse cx="957.543" cy="833.606" rx="6.109" ry="5.938" fill="#fff" opacity=".079" filter="url(#a)"/><ellipse cx="957.543" cy="833.606" rx="3.395" ry="2.969" fill="#fff" opacity=".079"/><ellipse cx="1161.192" cy="806.537" rx="4.391" ry="4.03" fill="#fff" opacity="-.101" filter="url(#a)"/><ellipse cx="1161.192" cy="806.537" rx="2.082" ry="2.015" fill="#fff" opacity="-.101"/><ellipse cx="1257.884" cy="807.645" rx="4.221" ry="3.75" fill="#fff" opacity=".258" filter="url(#a)"/><ellipse cx="1257.884" cy="807.645" rx="2.013" ry="1.875" fill="#fff" opacity=".258"/><ellipse cx="1411.498" cy="833.1" rx="4.669" ry="4.475" fill="#fff" opacity=".07" filter="url(#a)"/><ellipse cx="1411.498" cy="833.1" rx="2.497" ry="2.238" fill="#fff" opacity=".07"/><ellipse cx="1524.069" cy="846.263" rx="4.264" ry="3.988" fill="#fff" filter="url(#a)"/><ellipse cx="1524.069" cy="846.263" rx="2.484" ry="1.994" fill="#fff" opacity=".766"/><ellipse cx="1553.724" cy="811.917" rx="4.277" ry="3.777" fill="#fff" filter="url(#a)"/><ellipse cx="1553.724" cy="811.917" rx="2.25" ry="1.888" fill="#fff" opacity=".617"/><ellipse cx="1712.138" cy="816.093" rx="6.536" ry="6.328" fill="#fff" opacity=".201" filter="url(#a)"/><ellipse cx="1712.138" cy="816.093" rx="3.323" ry="3.164" fill="#fff" opacity=".201"/><ellipse cx="1860.125" cy="858.218" rx="3.827" ry="3.796" fill="#fff" opacity=".015" filter="url(#a)"/><ellipse cx="1860.125" cy="858.218" rx="2.022" ry="1.898" fill="#fff" opacity=".015"/><ellipse cx="1903.691" cy="858.778" rx="5.387" ry="5.136" fill="#fff" filter="url(#a)"/><ellipse cx="1903.691" cy="858.778" rx="2.724" ry="2.568" fill="#fff" opacity=".509"/><ellipse cx="85.238" cy="874.557" rx="6.409" ry="6.243" fill="#fff" filter="url(#a)"/><ellipse cx="85.238" cy="874.557" rx="3.398" ry="3.122" fill="#fff" opacity=".555"/><ellipse cx="229.504" cy="917.12" rx="5.221" ry="4.952" fill="#fff" opacity=".222" filter="url(#a)"/><ellipse cx="229.504" cy="917.12" rx="2.735" ry="2.476" fill="#fff" opacity=".222"/><ellipse cx="236.659" cy="890.917" rx="6.368" ry="5.935" fill="#fff" filter="url(#a)"/><ellipse cx="236.659" cy="890.917" rx="3.435" ry="2.967" fill="#fff" opacity=".823"/><ellipse cx="444.335" cy="908.74" rx="4.27" ry="4.092" fill="#fff" filter="url(#a)"/><ellipse cx="444.335" cy="908.74" rx="2.12" ry="2.046" fill="#fff" opacity=".896"/><ellipse cx="486.421" cy="901.464" rx="4.829" ry="4.771" fill="#fff" opacity=".191" filter="url(#a)"/><ellipse cx="486.421" cy="901.464" rx="2.808" ry="2.386" fill="#fff" opacity=".191"/><ellipse cx="685.956" cy="922.186" rx="4.195" ry="3.861" fill="#fff" filter="url(#a)"/><ellipse cx="685.956" cy="922.186" rx="1.965" ry="1.93" fill="#fff" opacity=".536"/><ellipse cx="743.634" cy="931.48" rx="6.508" ry="6.138" fill="#fff" filter="url(#a)"/><ellipse cx="743.634" cy="931.48" rx="3.142" ry="3.069" fill="#fff" opacity=".518"/><ellipse cx="887.225" cy="903.085" rx="6.818" ry="6.589" fill="#fff" opacity=".451" filter="url(#a)"/><ellipse cx="887.225" cy="903.085" rx="3.363" ry="3.294" fill="#fff" opacity=".451"/><ellipse cx="979.249" cy="929.879" rx="3.821" ry="3.4" fill="#fff" opacity=".243" filter="url(#a)"/><ellipse cx="979.249" cy="929.879" rx="2.118" ry="1.7" fill="#fff" opacity=".243"/><ellipse cx="1072.035" cy="933.325" rx="6.445" ry="6.315" fill="#fff" opacity=".194" filter="url(#a)"/><ellipse cx="1072.035" cy="933.325" rx="3.23" ry="3.158" fill="#fff" opacity=".194"/><ellipse cx="1205.924" cy="908.598" rx="3.722" ry="3.397" fill="#fff" opacity=".179" filter="url(#a)"/><ellipse cx="1205.924" cy="908.598" rx="1.748" ry="1.699" fill="#fff" opacity=".179"/><ellipse cx="1317.953" cy="922.274" rx="6.466" ry="6.328" fill="#fff" opacity=".394" filter="url(#a)"/><ellipse cx="1317.953" cy="922.274" rx="3.47" ry="3.164" fill="#fff" opacity=".394"/><ellipse cx="1443.663" cy="908.103" rx="6.329" ry="5.969" fill="#fff" opacity=".432" filter="url(#a)"/><ellipse cx="1443.663" cy="908.103" rx="3.02" ry="2.985" fill="#fff" opacity=".432"/><ellipse cx="1573.279" cy="879.34" rx="6.666" ry="6.256" fill="#fff" opacity=".002" filter="url(#a)"/><ellipse cx="1573.279" cy="879.34" rx="3.147" ry="3.128" fill="#fff" opacity=".002"/><ellipse cx="1693.678" cy="888.297" rx="5.859" ry="5.478" fill="#fff" opacity=".339" filter="url(#a)"/><ellipse cx="1693.678" cy="888.297" rx="2.947" ry="2.739" fill="#fff" opacity=".339"/><ellipse cx="1817.261" cy="900.952" rx="5.702" ry="5.207" fill="#fff" filter="url(#a)"/><ellipse cx="1817.261" cy="900.952" rx="2.69" ry="2.604" fill="#fff" opacity=".77"/><ellipse cx="1926.675" cy="878.138" rx="5.012" ry="4.814" fill="#fff" opacity=".022" filter="url(#a)"/><ellipse cx="1926.675" cy="878.138" rx="2.745" ry="2.407" fill="#fff" opacity=".022"/><ellipse cx="83.733" cy="945.116" rx="4.93" ry="4.752" fill="#fff" filter="url(#a)"/><ellipse cx="83.733" cy="945.116" rx="2.628" ry="2.376" fill="#fff" opacity=".791"/><ellipse cx="128.325" cy="994.371" rx="5.932" ry="5.835" fill="#fff" filter="url(#a)"/><ellipse cx="128.325" cy="994.371" rx="3.332" ry="2.917" fill="#fff" opacity=".646"/><ellipse cx="261.24" cy="1001.707" rx="6.605" ry="6.561" fill="#fff" opacity="-.03" filter="url(#a)"/><ellipse cx="261.24" cy="1001.707" rx="3.387" ry="3.28" fill="#fff" opacity="-.03"/><ellipse cx="459.154" cy="999.421" rx="3.342" ry="3.33" fill="#fff" opacity=".334" filter="url(#a)"/><ellipse cx="459.154" cy="999.421" rx="1.926" ry="1.665" fill="#fff" opacity=".334"/><ellipse cx="493.684" cy="958.625" rx="5.74" ry="5.472" fill="#fff" opacity=".462" filter="url(#a)"/><ellipse cx="493.684" cy="958.625" rx="2.738" ry="2.736" fill="#fff" opacity=".462"/><ellipse cx="605.918" cy="942.852" rx="6.658" ry="6.331" fill="#fff" filter="url(#a)"/><ellipse cx="605.918" cy="942.852" rx="3.642" ry="3.165" fill="#fff" opacity=".634"/><ellipse cx="754.397" cy="947.862" rx="5.104" ry="5.006" fill="#fff" opacity="-.199" filter="url(#a)"/><ellipse cx="754.397" cy="947.862" rx="2.86" ry="2.503" fill="#fff" opacity="-.199"/><ellipse cx="915.43" cy="985.307" rx="5.152" ry="4.832" fill="#fff" filter="url(#a)"/><ellipse cx="915.43" cy="985.307" rx="2.756" ry="2.416" fill="#fff" opacity=".535"/><ellipse cx="1036.545" cy="972.492" rx="4.221" ry="4.119" fill="#fff" filter="url(#a)"/><ellipse cx="1036.545" cy="972.492" rx="2.352" ry="2.059" fill="#fff" opacity=".821"/><ellipse cx="1089.362" cy="972.567" rx="3.956" ry="3.582" fill="#fff" filter="url(#a)"/><ellipse cx="1089.362" cy="972.567" rx="1.833" ry="1.791" fill="#fff" opacity=".571"/><ellipse cx="1184.408" cy="958.247" rx="5.115" ry="4.824" fill="#fff" filter="url(#a)"/><ellipse cx="1184.408" cy="958.247" rx="2.632" ry="2.412" fill="#fff" opacity=".865"/><ellipse cx="1372.712" cy="971.398" rx="6.376" ry="6.044" fill="#fff" opacity=".022" filter="url(#a)"/><ellipse cx="1372.712" cy="971.398" rx="3.301" ry="3.022" fill="#fff" opacity=".022"/><ellipse cx="1476.064" cy="980.159" rx="5.844" ry="5.452" fill="#fff" opacity="-.108" filter="url(#a)"/><ellipse cx="1476.064" cy="980.159" rx="3.121" ry="2.726" fill="#fff" opacity="-.108"/><ellipse cx="1625.978" cy="962.9" rx="5.962" ry="5.516" fill="#fff" opacity="-.189" filter="url(#a)"/><ellipse cx="1625.978" cy="962.9" rx="2.782" ry="2.758" fill="#fff" opacity="-.189"/><ellipse cx="1728.045" cy="984.145" rx="6.198" ry="5.885" fill="#fff" opacity=".428" filter="url(#a)"/><ellipse cx="1728.045" cy="984.145" rx="3.243" ry="2.943" fill="#fff" opacity=".428"/><ellipse cx="1795.129" cy="978.027" rx="5.308" ry="4.94" fill="#fff" opacity=".301" filter="url(#a)"/><ellipse cx="1795.129" cy="978.027" rx="2.915" ry="2.47" fill="#fff" opacity=".301"/><ellipse cx="1906.814" cy="943.165" rx="5.53" ry="5.155" fill="#fff" filter="url(#a)"/><ellipse cx="1906.814" cy="943.165" rx="2.982" ry="2.578" fill="#fff" opacity=".524"/><g transform="rotate(-55.448 955.716 -1773.927)"><defs><linearGradient id="b" x1="0" y1="1" x2="211.178" y2="1" gradientUnits="userSpaceOnUse"><stop stop-color="#fff"/><stop offset=".3" stop-color="#fff" stop-opacity=".1"/><stop offset=".7" stop-color="#fff" stop-opacity="0"/></linearGradient></defs><rect x="-10.559" y="-12.5" width="84.471" height="25" rx="25" ry="25" fill="url(#b)" filter="url(#c)" opacity=".4"/><rect width="126.707" height="8" rx="8" ry="8" fill="url(#b)"/></g><g transform="rotate(-56.217 440.483 -107.33)" fill="url(#b)"><rect x="-11.094" y="-12.5" width="88.749" height="25" rx="25" ry="25" filter="url(#c)" opacity=".4"/><rect width="133.123" height="8" rx="8" ry="8"/></g><g transform="rotate(-63.088 1036.917 -956.616)" fill="url(#b)"><rect x="-8.629" y="-12.5" width="69.032" height="25" rx="25" ry="25" filter="url(#c)" opacity=".4"/><rect width="103.548" height="8" rx="8" ry="8"/></g><g transform="rotate(-64.964 583.022 181.132)" fill="url(#b)"><rect x="-9.194" y="-12.5" width="73.548" height="25" rx="25" ry="25" filter="url(#c)" opacity=".4"/><rect width="110.322" height="8" rx="8" ry="8"/></g><g transform="rotate(-60.064 1570.534 -781.706)" fill="url(#b)"><rect x="-10.141" y="-12.5" width="81.126" height="25" rx="25" ry="25" filter="url(#c)" opacity=".4"/><rect width="121.689" height="8" rx="8" ry="8"/></g></svg>