<svg viewBox="0 0 2000 1000" xmlns="http://www.w3.org/2000/svg"><defs><filter id="b" x="-200%" y="-200%" width="500%" height="500%"><feGaussianBlur in="SourceGraphic" stdDeviation="20"/></filter></defs><path fill="#000336" d="M0 0h2000v1000H0z"/><ellipse cx="173.177" cy="24.624" rx="1.495" ry="1.491" fill="#fff" opacity=".798"/><ellipse cx="378.653" cy="56.041" rx="2.11" ry="1.987" fill="#fff" opacity=".246"/><ellipse cx="422.515" cy="41.152" rx="1.772" ry="1.312" fill="#fff" opacity=".439"/><ellipse cx="668.334" cy="13.228" rx="1.972" ry="1.903" fill="#fff" opacity=".669"/><ellipse cx="849.836" cy="7.915" rx="1.751" ry="1.466" fill="#fff" opacity=".681"/><ellipse cx="1057.795" cy="95.641" rx="1.697" ry="1.331" fill="#fff" opacity=".555"/><ellipse cx="1222.424" cy="24.95" rx="1.376" ry="1.133" fill="#fff" opacity=".444"/><ellipse cx="1490.397" cy="36.115" rx="2.32" ry="1.932" fill="#fff" opacity=".718"/><ellipse cx="1723.164" cy="59.936" rx="1.499" ry="1.182" fill="#fff" opacity=".367"/><ellipse cx="1969.885" cy="79.812" rx="1.659" ry="1.17" fill="#fff" opacity=".444"/><ellipse cx="172.048" cy="115.786" rx="1.53" ry="1.292" fill="#fff" opacity=".426"/><ellipse cx="207.68" cy="169.502" rx="2.363" ry="1.968" fill="#fff" opacity=".09"/><ellipse cx="415.958" cy="152.693" rx="1.645" ry="1.323" fill="#fff" opacity=".415"/><ellipse cx="708.945" cy="144.059" rx="1.429" ry="1.024" fill="#fff" opacity=".255"/><ellipse cx="824.435" cy="175.157" rx="1.08" ry="1.022" fill="#fff" opacity="-.068"/><ellipse cx="1071.032" cy="135.667" rx="1.644" ry="1.577" fill="#fff" opacity=".061"/><ellipse cx="1232.017" cy="153.546" rx="1.429" ry="1.209" fill="#fff" opacity=".393"/><ellipse cx="1593.828" cy="187.459" rx="1.724" ry="1.657" fill="#fff" opacity=".132"/><ellipse cx="1721.708" cy="177.114" rx="2.211" ry="1.872" fill="#fff" opacity=".672"/><ellipse cx="1979.108" cy="194.716" rx="2.1" ry="1.699" fill="#fff" opacity=".402"/><ellipse cx="42.513" cy="223.855" rx="1.848" ry="1.386" fill="#fff" opacity=".535"/><ellipse cx="234.965" cy="283.772" rx="1.465" ry="1.341" fill="#fff" opacity=".73"/><ellipse cx="473.971" cy="299.938" rx="1.375" ry="1.233" fill="#fff" opacity=".261"/><ellipse cx="628.483" cy="235.783" rx="1.355" ry="1.184" fill="#fff" opacity=".352"/><ellipse cx="815.517" cy="207.941" rx="1.998" ry="1.922" fill="#fff" opacity=".657"/><ellipse cx="1105.116" cy="298.799" rx="1.372" ry="1.354" fill="#fff" opacity=".329"/><ellipse cx="1301.129" cy="285.693" rx="2.173" ry="1.868" fill="#fff" opacity=".172"/><ellipse cx="1497.475" cy="291.948" rx="1.466" ry="1.189" fill="#fff" opacity=".305"/><ellipse cx="1790.916" cy="299.247" rx="1.737" ry="1.546" fill="#fff" opacity="-.038"/><ellipse cx="1934.618" cy="289.454" rx="1.523" ry="1.361" fill="#fff" opacity=".869"/><ellipse cx="163.04" cy="365.061" rx="2" ry="1.754" fill="#fff" opacity=".464"/><ellipse cx="332.108" cy="314.073" rx="2.226" ry="1.891" fill="#fff" opacity=".647"/><ellipse cx="536.306" cy="321.493" rx="1.62" ry="1.217" fill="#fff" opacity=".173"/><ellipse cx="687.129" cy="336.44" rx="1.826" ry="1.375" fill="#fff" opacity=".369"/><ellipse cx="961.15" cy="306.705" rx="1.495" ry="1.454" fill="#fff" opacity=".807"/><ellipse cx="1042.634" cy="306.05" rx="1.579" ry="1.489" fill="#fff" opacity=".344"/><ellipse cx="1301.084" cy="378.984" rx="1.187" ry="1.074" fill="#fff" opacity=".967"/><ellipse cx="1563.837" cy="340.451" rx="2.001" ry="1.662" fill="#fff" opacity=".298"/><ellipse cx="1745.332" cy="373.399" rx="2.249" ry="1.915" fill="#fff" opacity=".792"/><ellipse cx="1822.731" cy="309.317" rx="1.722" ry="1.688" fill="#fff" opacity=".592"/><ellipse cx="141.196" cy="444.402" rx="1.942" ry="1.54" fill="#fff" opacity=".232"/><ellipse cx="391.511" cy="435.307" rx="1.912" ry="1.447" fill="#fff" opacity=".178"/><ellipse cx="549.576" cy="406.219" rx="1.53" ry="1.136" fill="#fff" opacity=".523"/><ellipse cx="769.09" cy="446.817" rx="1.287" ry="1.003" fill="#fff" opacity=".019"/><ellipse cx="844.129" cy="460.719" rx="1.132" ry="1.079" fill="#fff" opacity=".326"/><ellipse cx="1084.742" cy="417.928" rx="1.838" ry="1.651" fill="#fff" opacity=".187"/><ellipse cx="1394.029" cy="428.508" rx="2.213" ry="1.805" fill="#fff" opacity=".674"/><ellipse cx="1523.847" cy="445.143" rx="1.813" ry="1.81" fill="#fff" opacity=".154"/><ellipse cx="1671.072" cy="446.538" rx="1.31" ry="1.249" fill="#fff" opacity=".3"/><ellipse cx="1945.135" cy="484.587" rx="2.196" ry="1.975" fill="#fff" opacity=".013"/><ellipse cx="38.713" cy="548.375" rx="2.148" ry="1.964" fill="#fff" opacity=".232"/><ellipse cx="227.009" cy="575.247" rx="1.426" ry="1.195" fill="#fff" opacity=".617"/><ellipse cx="588.169" cy="598.895" rx="2.031" ry="1.608" fill="#fff" opacity=".403"/><ellipse cx="705.916" cy="524.338" rx="2.138" ry="1.924" fill="#fff" opacity=".695"/><ellipse cx="980.903" cy="534.301" rx="2.228" ry="1.862" fill="#fff" opacity="-.03"/><ellipse cx="1153.963" cy="599.817" rx="1.454" ry="1.098" fill="#fff" opacity=".169"/><ellipse cx="1252.785" cy="565.343" rx="1.337" ry="1.198" fill="#fff" opacity=".463"/><ellipse cx="1576.7" cy="504.097" rx="1.616" ry="1.177" fill="#fff" opacity=".017"/><ellipse cx="1621.428" cy="522.913" rx="1.474" ry="1.276" fill="#fff" opacity=".065"/><ellipse cx="1930.54" cy="570.185" rx="1.224" ry="1.147" fill="#fff" opacity=".328"/><ellipse cx="133.018" cy="658.525" rx="1.285" ry="1.032" fill="#fff" opacity=".1"/><ellipse cx="209.653" cy="635.16" rx="2.042" ry="1.546" fill="#fff" opacity=".893"/><ellipse cx="473.217" cy="625.931" rx="1.806" ry="1.594" fill="#fff" opacity=".551"/><ellipse cx="725.988" cy="641.684" rx="1.553" ry="1.504" fill="#fff" opacity=".619"/><ellipse cx="817.682" cy="682.39" rx="2.454" ry="1.964" fill="#fff" opacity=".283"/><ellipse cx="1175.881" cy="655.299" rx="2.094" ry="1.726" fill="#fff" opacity=".624"/><ellipse cx="1341.072" cy="669.298" rx="1.341" ry="1.288" fill="#fff" opacity=".831"/><ellipse cx="1572.558" cy="611.735" rx="1.643" ry="1.554" fill="#fff" opacity=".765"/><ellipse cx="1771.367" cy="655.612" rx="1.784" ry="1.541" fill="#fff" opacity=".576"/><ellipse cx="1895.713" cy="678.355" rx="2.065" ry="1.707" fill="#fff" opacity=".732"/><ellipse cx="114.528" cy="746.866" rx="1.686" ry="1.517" fill="#fff" opacity=".132"/><ellipse cx="398.708" cy="778.042" rx="2.138" ry="1.991" fill="#fff" opacity=".41"/><ellipse cx="469.522" cy="763.003" rx="1.22" ry="1.092" fill="#fff" opacity=".547"/><ellipse cx="792.03" cy="773.578" rx="1.59" ry="1.372" fill="#fff" opacity="-.11"/><ellipse cx="918.595" cy="756.09" rx="2.002" ry="1.595" fill="#fff" opacity=".715"/><ellipse cx="1028.814" cy="715.293" rx="1.408" ry="1.158" fill="#fff" opacity=".506"/><ellipse cx="1287.939" cy="767.761" rx="1.451" ry="1.125" fill="#fff" opacity=".131"/><ellipse cx="1564.83" cy="763.526" rx="2.204" ry="1.906" fill="#fff" opacity="-.034"/><ellipse cx="1782.126" cy="769.211" rx="1.574" ry="1.432" fill="#fff" opacity=".56"/><ellipse cx="1981.872" cy="779.523" rx="2.124" ry="2" fill="#fff" opacity=".119"/><ellipse cx="119.655" cy="828.635" rx="1.327" ry="1.051" fill="#fff" opacity=".049"/><ellipse cx="234.739" cy="830.191" rx="1.487" ry="1.472" fill="#fff" opacity=".585"/><ellipse cx="562.956" cy="847.501" rx="2.079" ry="1.709" fill="#fff" opacity=".735"/><ellipse cx="670.917" cy="892.286" rx="1.958" ry="1.617" fill="#fff" opacity=".784"/><ellipse cx="886.056" cy="886.647" rx="1.663" ry="1.361" fill="#fff" opacity=".661"/><ellipse cx="1075.355" cy="806.658" rx="1.806" ry="1.729" fill="#fff" opacity=".232"/><ellipse cx="1349.986" cy="875.167" rx="1.992" ry="1.607" fill="#fff" opacity=".359"/><ellipse cx="1515.634" cy="875.897" rx="2.212" ry="1.849" fill="#fff" opacity=".217"/><ellipse cx="1728.132" cy="829.312" rx="1.437" ry="1.065" fill="#fff" opacity=".4"/><ellipse cx="1973.392" cy="849.238" rx="1.749" ry="1.301" fill="#fff" opacity=".55"/><ellipse cx="120.682" cy="955.938" rx="1.329" ry="1.041" fill="#fff" opacity="-.184"/><ellipse cx="382.985" cy="947.583" rx="2.062" ry="1.936" fill="#fff" opacity=".216"/><ellipse cx="425.403" cy="961.934" rx="1.51" ry="1.318" fill="#fff" opacity=".662"/><ellipse cx="713.897" cy="962.954" rx="1.769" ry="1.659" fill="#fff" opacity=".362"/><ellipse cx="820.579" cy="945.795" rx="2.137" ry="1.994" fill="#fff" opacity=".214"/><ellipse cx="1130.028" cy="981.693" rx="2.106" ry="1.811" fill="#fff" opacity="-.216"/><ellipse cx="1324.53" cy="941.921" rx="2.034" ry="1.77" fill="#fff" opacity=".56"/><ellipse cx="1403.254" cy="901.185" rx="2.285" ry="1.822" fill="#fff" opacity=".762"/><ellipse cx="1737.922" cy="958.964" rx="1.629" ry="1.459" fill="#fff" opacity=".164"/><ellipse cx="1838.914" cy="934.029" rx="1.21" ry="1.05" fill="#fff" opacity=".915"/><g transform="rotate(-57.752 1049.69 -1740.296)"><defs><linearGradient id="a" x1="0" y1="1" x2="180.577" y2="1" gradientUnits="userSpaceOnUse"><stop stop-color="#fff"/><stop offset=".3" stop-color="#fff" stop-opacity=".1"/><stop offset=".7" stop-color="#fff" stop-opacity="0"/></linearGradient></defs><rect x="-9.029" y="-12.5" width="72.231" height="25" rx="25" ry="25" fill="url(#a)" filter="url(#b)" opacity=".4"/><rect width="108.346" height="8" rx="8" ry="8" fill="url(#a)"/></g><g transform="rotate(-59.163 798.625 -765.235)" fill="url(#a)"><rect x="-11.541" y="-12.5" width="92.328" height="25" rx="25" ry="25" filter="url(#b)" opacity=".4"/><rect width="138.492" height="8" rx="8" ry="8"/></g><g transform="rotate(-56.753 564.082 180.935)" fill="url(#a)"><rect x="-10.586" y="-12.5" width="84.69" height="25" rx="25" ry="25" filter="url(#b)" opacity=".4"/><rect width="127.035" height="8" rx="8" ry="8"/></g><g transform="rotate(-58.129 1012.67 -523.356)" fill="url(#a)"><rect x="-9.642" y="-12.5" width="77.137" height="25" rx="25" ry="25" filter="url(#b)" opacity=".4"/><rect width="115.705" height="8" rx="8" ry="8"/></g><g transform="rotate(-61.083 1119.065 -116.388)" fill="url(#a)"><rect x="-8.513" y="-12.5" width="68.107" height="25" rx="25" ry="25" filter="url(#b)" opacity=".4"/><rect width="102.16" height="8" rx="8" ry="8"/></g></svg>