<svg width="102" height="52" viewBox="0 0 102 52" fill="none" xmlns="http://www.w3.org/2000/svg">
<rect x="1" y="1" width="100" height="50" rx="25" fill="#F0F0F0" stroke="#00173F"/>
<circle cx="77" cy="26" r="20" fill="#00173F" stroke="#00173F"/>
<mask id="mask0_41_29" style="mask-type:alpha" maskUnits="userSpaceOnUse" x="66" y="15" width="22" height="22">
<rect x="66" y="15" width="22" height="22" fill="#D9D9D9"/>
</mask>
<g mask="url(#mask0_41_29)">
<path d="M77 34.25C74.7083 34.25 72.7604 33.4479 71.1563 31.8438C69.5521 30.2396 68.75 28.2917 68.75 26C68.75 23.7083 69.5521 21.7604 71.1563 20.1563C72.7604 18.5521 74.7083 17.75 77 17.75C77.2139 17.75 77.424 17.7576 77.6302 17.7729C77.8365 17.7882 78.0389 17.8111 78.2375 17.8417C77.6111 18.2847 77.1108 18.8615 76.7365 19.5719C76.3622 20.2823 76.175 21.05 76.175 21.875C76.175 23.25 76.6563 24.4187 77.6188 25.3812C78.5813 26.3438 79.75 26.825 81.125 26.825C81.9653 26.825 82.7368 26.6378 83.4396 26.2635C84.1424 25.8892 84.7153 25.3889 85.1583 24.7625C85.1889 24.9611 85.2118 25.1635 85.2271 25.3698C85.2424 25.576 85.25 25.7861 85.25 26C85.25 28.2917 84.4479 30.2396 82.8438 31.8438C81.2396 33.4479 79.2917 34.25 77 34.25ZM77 32.4167C78.3444 32.4167 79.5514 32.0462 80.6208 31.3052C81.6903 30.5642 82.4694 29.5979 82.9583 28.4063C82.6528 28.4826 82.3472 28.5438 82.0417 28.5896C81.7361 28.6354 81.4306 28.6583 81.125 28.6583C79.2458 28.6583 77.6455 27.9976 76.324 26.676C75.0024 25.3545 74.3417 23.7542 74.3417 21.875C74.3417 21.5694 74.3646 21.2639 74.4104 20.9583C74.4563 20.6528 74.5174 20.3472 74.5938 20.0417C73.4021 20.5306 72.4358 21.3097 71.6948 22.3792C70.9538 23.4486 70.5833 24.6556 70.5833 26C70.5833 27.7722 71.2097 29.2847 72.4625 30.5375C73.7153 31.7903 75.2278 32.4167 77 32.4167Z" fill="#DDDDDD"/>
</g>
</svg>
