<svg width="102" height="52" viewBox="0 0 102 52" fill="none" xmlns="http://www.w3.org/2000/svg">
<rect x="1" y="1" width="100" height="50" rx="25" fill="#F0F0F0" stroke="#00173F"/>
<circle cx="25" cy="26" r="20" fill="#FFC107" stroke="#00173F"/>
<mask id="mask0_41_36" style="mask-type:alpha" maskUnits="userSpaceOnUse" x="14" y="15" width="22" height="22">
<rect x="14" y="15" width="22" height="22" fill="#D9D9D9"/>
</mask>
<g mask="url(#mask0_41_36)">
<path d="M25 28.75C25.7639 28.75 26.4132 28.4826 26.9479 27.9479C27.4827 27.4132 27.75 26.7639 27.75 26C27.75 25.2361 27.4827 24.5868 26.9479 24.0521C26.4132 23.5174 25.7639 23.25 25 23.25C24.2361 23.25 23.5868 23.5174 23.0521 24.0521C22.5174 24.5868 22.25 25.2361 22.25 26C22.25 26.7639 22.5174 27.4132 23.0521 27.9479C23.5868 28.4826 24.2361 28.75 25 28.75ZM25 30.5833C23.732 30.5833 22.6511 30.1365 21.7573 29.2427C20.8636 28.349 20.4167 27.2681 20.4167 26C20.4167 24.7319 20.8636 23.651 21.7573 22.7573C22.6511 21.8635 23.732 21.4167 25 21.4167C26.2681 21.4167 27.349 21.8635 28.2427 22.7573C29.1365 23.651 29.5834 24.7319 29.5834 26C29.5834 27.2681 29.1365 28.349 28.2427 29.2427C27.349 30.1365 26.2681 30.5833 25 30.5833ZM18.5834 26.9167H14.9167V25.0833H18.5834V26.9167ZM35.0834 26.9167H31.4167V25.0833H35.0834V26.9167ZM24.0834 19.5833V15.9167H25.9167V19.5833H24.0834ZM24.0834 36.0833V32.4167H25.9167V36.0833H24.0834ZM19.8667 22.1042L17.5521 19.8813L18.8584 18.5292L21.0584 20.8208L19.8667 22.1042ZM31.1417 33.4708L28.9188 31.1563L30.1334 29.8958L32.4479 32.1188L31.1417 33.4708ZM28.8959 20.8667L31.1188 18.5521L32.4709 19.8583L30.1792 22.0583L28.8959 20.8667ZM17.5292 32.1417L19.8438 29.9188L21.1042 31.1333L18.8813 33.4479L17.5292 32.1417Z" fill="black"/>
</g>
</svg>
